<svg width="326" height="326" viewBox="0 0 326 326" fill="none" xmlns="http://www.w3.org/2000/svg">
<g filter="url(#filter0_d_2439_28896)">
<path d="M50.8232 192.731C50.8232 194.426 52.062 196.513 53.6268 197.426L132.747 243.098C134.312 243.978 136.822 243.978 138.387 243.098L246.619 180.604C248.184 179.691 249.455 177.605 249.455 175.91C249.455 174.214 248.184 172.128 246.619 171.215L167.531 125.543C165.966 124.662 163.424 124.662 161.859 125.543L53.6268 188.037C52.062 188.95 50.8232 191.036 50.8232 192.731Z" fill="#37474F"/>
<path d="M135.551 237.654V243.75C134.54 243.75 133.529 243.555 132.747 243.098L53.6268 197.426C52.062 196.513 50.8232 194.426 50.8232 192.731C50.8232 191.134 51.9316 189.21 53.3334 188.232C52.0946 189.145 52.1924 190.449 53.6268 191.297L132.747 236.969C133.529 237.426 134.54 237.654 135.551 237.654Z" fill="#263238"/>
<path d="M48.1501 188.135C46.6831 187.287 45.5095 185.168 45.5095 183.342V88.9654C45.5095 87.1398 46.7809 84.9556 48.3457 84.0754L156.578 21.5812C158.143 20.6684 160.588 20.6358 162.055 21.4834C163.522 22.331 164.695 24.45 164.695 26.2756V120.653C164.695 122.478 163.424 124.662 161.859 125.543L53.6269 188.037C52.0621 188.95 49.6171 188.982 48.1501 188.135Z" fill="#455A64"/>
<path d="M53.3009 188.2C51.7361 188.95 49.5193 188.917 48.1501 188.135C46.7157 187.287 45.5095 185.168 45.5095 183.342V88.9653C45.5095 88.0525 45.8355 87.0419 46.3571 86.1617L51.6383 89.2262C51.1167 90.1064 50.8233 91.117 50.8233 91.9972V186.407C50.8233 188.069 51.8991 188.819 53.3009 188.2Z" fill="#263238"/>
<path d="M50.8232 91.9972V186.407C50.8232 188.2 52.062 188.95 53.6268 188.037L161.859 125.543C163.424 124.662 164.695 122.478 164.695 120.653V26.2756C164.695 24.45 163.424 23.7328 161.859 24.6456L53.6268 87.1072C52.062 88.02 50.8232 90.2042 50.8232 91.9972Z" fill="#37474F"/>
<path d="M53.627 191.297L132.747 236.969C134.312 237.882 136.822 237.882 138.387 236.969L246.619 174.475C248.184 173.595 248.184 172.128 246.619 171.215L167.531 125.543C165.967 124.662 163.424 124.662 161.859 125.543L53.627 188.037C52.0622 188.95 52.0622 190.417 53.627 191.297Z" fill="#455A64"/>
<path d="M55.1588 92.3559L159.511 32.1437C160.457 31.5895 161.207 32.0133 161.207 33.1217V114.817C161.207 115.893 160.457 117.23 159.511 117.751L55.1588 177.996C54.2134 178.518 53.4636 178.094 53.4636 177.018V95.2899C53.4636 94.2141 54.2134 92.9101 55.1588 92.3559Z" fill="white"/>
<path opacity="0.6" d="M55.1588 92.3559L159.511 32.1437C160.457 31.5895 161.207 32.0133 161.207 33.1217V114.817C161.207 115.893 160.457 117.23 159.511 117.751L55.1588 177.996C54.2134 178.518 53.4636 178.094 53.4636 177.018V95.2899C53.4636 94.2141 54.2134 92.9101 55.1588 92.3559Z" fill="#582357"/>
<path d="M107.091 87.205C109.894 85.575 112.144 86.879 112.144 90.1064C112.144 93.3012 109.894 97.2132 107.091 98.8106C104.32 100.408 102.07 99.104 102.07 95.9092C102.07 92.7144 104.32 88.8024 107.091 87.205Z" fill="#F0F0F0"/>
<path d="M117.034 104.353C117.034 99.0714 113.317 96.7568 108.753 99.3648L105.917 101.027C101.353 103.668 97.6367 110.058 97.6367 115.339V116.773L117.034 105.559V104.353Z" fill="#F0F0F0"/>
<path d="M126.814 106.961C126.651 106.537 126.162 106.439 125.64 106.732L91.8017 126.26C91.4431 126.455 91.1171 126.781 90.8889 127.205C90.6607 127.596 90.5303 128.02 90.5303 128.444V132.421C90.5303 133.073 90.9541 133.432 91.4757 133.269C91.5409 133.247 91.5735 133.236 91.5735 133.236C91.6604 133.215 91.7365 133.182 91.8017 133.138L125.64 113.611C126.325 113.22 126.879 112.242 126.879 111.427V107.45C126.879 107.287 126.879 107.091 126.814 106.961Z" fill="#F0F0F0"/>
<path d="M94.8338 126.749C95.5184 126.358 96.04 126.684 96.04 127.433C96.04 128.183 95.5184 129.129 94.8338 129.487C94.1818 129.878 93.6602 129.585 93.6602 128.803C93.6602 128.053 94.1818 127.14 94.8338 126.749Z" fill="#582357"/>
<path d="M98.7781 124.467C99.4301 124.108 99.9843 124.402 99.9843 125.184C99.9843 125.934 99.4301 126.847 98.7781 127.238C98.1261 127.596 97.6045 127.303 97.6045 126.553C97.6045 125.771 98.1261 124.858 98.7781 124.467Z" fill="#582357"/>
<path d="M102.723 122.218C103.375 121.826 103.897 122.152 103.897 122.902C103.897 123.652 103.375 124.565 102.723 124.956C102.071 125.347 101.517 125.021 101.517 124.271C101.517 123.522 102.071 122.576 102.723 122.218Z" fill="#582357"/>
<path d="M106.635 119.936C107.32 119.544 107.841 119.87 107.841 120.62C107.841 121.37 107.32 122.315 106.635 122.674C105.983 123.065 105.461 122.772 105.461 121.989C105.461 121.24 105.983 120.327 106.635 119.936Z" fill="#582357"/>
<path d="M110.579 117.654C111.231 117.295 111.786 117.588 111.786 118.371C111.786 119.121 111.231 120.033 110.579 120.425C109.927 120.783 109.406 120.49 109.406 119.74C109.406 118.958 109.927 118.045 110.579 117.654Z" fill="#582357"/>
<path d="M114.524 115.404C115.176 115.013 115.698 115.339 115.698 116.089C115.698 116.839 115.176 117.751 114.524 118.142C113.872 118.534 113.318 118.208 113.318 117.458C113.318 116.708 113.872 115.763 114.524 115.404Z" fill="#582357"/>
<path d="M118.436 113.122C119.121 112.764 119.642 113.057 119.642 113.807C119.642 114.557 119.121 115.502 118.436 115.861C117.784 116.252 117.262 115.958 117.262 115.176C117.262 114.426 117.784 113.513 118.436 113.122Z" fill="#582357"/>
<path d="M122.381 110.84C123.033 110.481 123.587 110.775 123.587 111.557C123.587 112.307 123.033 113.22 122.381 113.611C121.729 113.97 121.207 113.676 121.207 112.926C121.207 112.144 121.729 111.231 122.381 110.84Z" fill="#582357"/>
<path d="M62.8202 188.852L163.293 130.856C164.076 130.4 165.315 130.4 166.097 130.856L171.248 133.823C172.03 134.279 172.03 134.997 171.248 135.453L70.7746 193.448C69.9922 193.905 68.7208 193.905 67.9384 193.448L62.8202 190.482C62.0378 190.025 62.0378 189.308 62.8202 188.852Z" fill="#37474F"/>
<path d="M76.0556 196.513L176.529 138.485C177.311 138.061 178.583 138.061 179.332 138.485L210.954 156.741C211.737 157.197 211.737 157.914 210.954 158.371L110.612 216.301C109.829 216.757 108.558 216.757 107.775 216.301L76.0556 198.143C75.2731 197.686 75.2731 196.969 76.0556 196.513Z" fill="#263238"/>
<path fill-rule="evenodd" clip-rule="evenodd" d="M165.608 164.597L161.989 162.478C161.826 162.413 161.826 162.283 161.957 162.185L165.119 160.392C165.249 160.294 165.477 160.294 165.608 160.392L169.259 162.478C169.389 162.576 169.389 162.706 169.259 162.772L166.129 164.597C165.999 164.662 165.771 164.662 165.608 164.597ZM160.424 157.393L164.043 159.479C164.206 159.577 164.206 159.707 164.076 159.772L160.913 161.598C160.783 161.663 160.555 161.663 160.424 161.598L156.773 159.479C156.643 159.414 156.643 159.283 156.773 159.186L159.903 157.393C160.033 157.295 160.261 157.295 160.424 157.393ZM150.253 163.261L153.872 165.347C154.035 165.445 154.035 165.575 153.904 165.64L148.591 168.705C148.46 168.803 148.232 168.803 148.069 168.705L144.45 166.618C144.287 166.521 144.287 166.39 144.418 166.325L149.732 163.261C149.895 163.163 150.09 163.163 150.253 163.261ZM155.828 160.033L159.446 162.152C159.609 162.217 159.609 162.348 159.479 162.446L156.317 164.239C156.186 164.336 155.958 164.336 155.828 164.239L152.177 162.152C152.046 162.054 152.046 161.924 152.177 161.859L155.306 160.033C155.437 159.968 155.665 159.968 155.828 160.033ZM143.472 167.173L147.124 169.259C147.254 169.357 147.254 169.487 147.124 169.552L143.994 171.378C143.864 171.443 143.635 171.443 143.472 171.378L139.854 169.259C139.691 169.194 139.691 169.063 139.821 168.966L142.983 167.173C143.114 167.075 143.342 167.075 143.472 167.173ZM138.876 169.813L142.527 171.932C142.657 171.997 142.657 172.128 142.527 172.226L139.397 174.019C139.267 174.116 139.039 174.116 138.876 174.019L135.257 171.932C135.094 171.834 135.094 171.704 135.225 171.639L138.387 169.813C138.517 169.748 138.745 169.748 138.876 169.813ZM152.177 178.354L148.558 176.235C148.395 176.17 148.395 176.04 148.525 175.942L151.655 174.149C151.818 174.051 152.014 174.051 152.177 174.149L155.795 176.235C155.958 176.333 155.958 176.464 155.828 176.529L152.666 178.354C152.535 178.42 152.307 178.42 152.177 178.354ZM147.58 180.995L143.929 178.909C143.798 178.811 143.798 178.68 143.929 178.615L147.058 176.79C147.221 176.724 147.417 176.724 147.58 176.79L151.199 178.909C151.362 178.974 151.362 179.104 151.231 179.202L148.069 180.995C147.939 181.093 147.71 181.093 147.58 180.995ZM142.983 183.636L139.332 181.549C139.202 181.484 139.202 181.354 139.332 181.256L142.462 179.43C142.625 179.365 142.82 179.365 142.983 179.463L146.602 181.549C146.765 181.647 146.765 181.777 146.635 181.843L143.472 183.668C143.342 183.733 143.114 183.733 142.983 183.636ZM138.387 186.309L134.736 184.19C134.605 184.125 134.605 183.994 134.736 183.929L137.865 182.103C137.996 182.038 138.224 182.038 138.387 182.103L142.005 184.222C142.168 184.288 142.168 184.418 142.038 184.483L138.876 186.309C138.745 186.407 138.517 186.374 138.387 186.309ZM161.011 167.238L157.393 165.151C157.23 165.054 157.23 164.923 157.36 164.858L160.522 163.032C160.653 162.967 160.881 162.967 161.011 163.032L164.662 165.151C164.793 165.217 164.793 165.347 164.662 165.445L161.533 167.238C161.37 167.336 161.174 167.336 161.011 167.238ZM156.773 175.681L153.155 173.595C152.992 173.497 152.992 173.367 153.122 173.301L156.023 171.606C156.154 171.541 156.154 171.411 156.023 171.345L151.329 168.64C151.199 168.542 151.166 168.411 151.329 168.346L154.948 166.26C155.078 166.162 155.306 166.162 155.437 166.26L164.271 171.345C164.434 171.443 164.434 171.574 164.304 171.639L157.295 175.714C157.132 175.779 156.936 175.779 156.773 175.681ZM134.279 172.486L137.93 174.573C138.061 174.671 138.061 174.801 137.93 174.866L134.801 176.692C134.67 176.757 134.442 176.757 134.279 176.659L130.661 174.573C130.498 174.475 130.498 174.345 130.628 174.279L133.79 172.454C133.921 172.389 134.149 172.389 134.279 172.486ZM129.683 175.127L133.334 177.246C133.464 177.311 133.464 177.442 133.334 177.507L130.204 179.332C130.041 179.43 129.846 179.398 129.683 179.332L126.064 177.213C125.901 177.148 125.901 177.018 126.031 176.953L129.194 175.127C129.324 175.029 129.552 175.062 129.683 175.127ZM102.559 202.772C102.429 202.707 102.429 202.576 102.559 202.511L105.689 200.685C105.819 200.588 106.048 200.62 106.211 200.685L109.829 202.804C109.992 202.87 109.992 203 109.862 203.065L106.7 204.891C106.569 204.989 106.341 204.956 106.211 204.891L102.559 202.772ZM92.8772 196.35L96.5284 198.436C96.6588 198.534 96.6914 198.664 96.5284 198.729L93.3988 200.555C93.2684 200.62 93.0402 200.62 92.9098 200.555L89.2586 198.436C89.1282 198.371 89.0956 198.24 89.226 198.143L92.3882 196.35C92.5186 196.252 92.7468 196.252 92.8772 196.35ZM96.1372 200.457C96.0068 200.392 96.0068 200.262 96.1372 200.164L99.2668 198.371C99.3972 198.273 99.6254 198.273 99.7884 198.371L103.407 200.457C103.57 200.555 103.57 200.685 103.44 200.751L100.277 202.576C100.147 202.641 99.9188 202.641 99.7884 202.576L96.1372 200.457ZM113.806 206.456L110.155 204.337C110.025 204.271 109.992 204.141 110.123 204.076L113.285 202.25C113.415 202.152 113.643 202.185 113.774 202.25L117.425 204.369C117.555 204.434 117.588 204.565 117.425 204.63L114.295 206.456C114.165 206.553 113.937 206.521 113.806 206.456ZM105.559 207.01C105.428 206.912 105.396 206.782 105.526 206.716L108.688 204.891C108.819 204.826 109.047 204.826 109.177 204.923L112.828 207.01C112.959 207.108 112.991 207.238 112.828 207.303L109.699 209.129C109.568 209.194 109.34 209.194 109.21 209.096L105.559 207.01ZM97.4738 193.676L101.092 195.795C101.223 195.861 101.255 195.991 101.125 196.089L97.9628 197.882C97.8324 197.98 97.6042 197.98 97.4738 197.882L93.8226 195.795C93.6922 195.698 93.6922 195.567 93.8226 195.502L96.9522 193.676C97.0826 193.611 97.3108 193.611 97.4738 193.676ZM120.457 180.408L124.075 182.527C124.238 182.592 124.238 182.723 124.108 182.821L120.946 184.614C120.815 184.711 120.587 184.679 120.457 184.614L116.806 182.527C116.675 182.429 116.675 182.299 116.806 182.234L119.935 180.408C120.066 180.343 120.294 180.343 120.457 180.408ZM102.07 191.036L105.689 193.122C105.819 193.22 105.852 193.35 105.722 193.416L102.559 195.241C102.429 195.306 102.201 195.306 102.07 195.241L98.4192 193.122C98.2888 193.057 98.2888 192.927 98.4192 192.829L101.549 191.036C101.679 190.938 101.907 190.938 102.07 191.036ZM125.053 177.768L128.672 179.854C128.835 179.952 128.835 180.082 128.705 180.147L125.542 181.973C125.412 182.038 125.184 182.038 125.053 181.973L121.402 179.854C121.272 179.789 121.272 179.658 121.402 179.561L124.532 177.768C124.662 177.67 124.89 177.67 125.053 177.768ZM115.86 183.081L119.479 185.168C119.642 185.266 119.642 185.396 119.511 185.461L116.349 187.287C116.219 187.352 115.991 187.352 115.86 187.254L112.209 185.168C112.079 185.07 112.079 184.94 112.209 184.874L115.339 183.049C115.469 182.984 115.697 182.984 115.86 183.081ZM111.264 185.722L114.882 187.841C115.045 187.906 115.045 188.037 114.915 188.102L111.753 189.927C111.622 189.993 111.394 189.993 111.264 189.927L107.612 187.808C107.482 187.743 107.482 187.613 107.612 187.515L110.742 185.722C110.872 185.624 111.101 185.657 111.264 185.722ZM106.667 188.395L110.286 190.482C110.449 190.547 110.449 190.677 110.318 190.775L107.156 192.601C107.026 192.666 106.797 192.666 106.667 192.568L103.016 190.482C102.885 190.384 102.885 190.253 103.016 190.188L106.145 188.363C106.276 188.297 106.504 188.297 106.667 188.395ZM129.161 191.59L125.51 189.504C125.379 189.406 125.347 189.275 125.51 189.21L128.639 187.385C128.77 187.319 128.998 187.319 129.128 187.385L132.78 189.504C132.91 189.569 132.943 189.699 132.812 189.797L129.65 191.59C129.52 191.688 129.291 191.688 129.161 191.59ZM170.53 151.492L174.182 153.611C174.312 153.676 174.312 153.807 174.182 153.872L171.052 155.697C170.922 155.795 170.693 155.763 170.53 155.697L166.912 153.578C166.749 153.513 166.749 153.383 166.879 153.318L170.041 151.492C170.172 151.394 170.4 151.427 170.53 151.492ZM164.956 154.719L168.607 156.806C168.737 156.904 168.77 157.034 168.607 157.099L165.477 158.925C165.347 158.99 165.119 158.99 164.988 158.892L161.337 156.806C161.207 156.708 161.174 156.578 161.305 156.512L164.467 154.687C164.597 154.622 164.825 154.622 164.956 154.719ZM175.127 148.851L178.778 150.938C178.909 151.036 178.909 151.166 178.778 151.231L175.649 153.057C175.518 153.122 175.29 153.122 175.127 153.024L171.508 150.938C171.345 150.84 171.345 150.742 171.476 150.644L174.638 148.819C174.768 148.754 174.997 148.754 175.127 148.851ZM150.318 173.367L146.7 171.248C146.537 171.182 146.537 171.052 146.667 170.987L149.829 169.161C149.96 169.063 150.188 169.096 150.318 169.161L153.97 171.28C154.1 171.345 154.1 171.476 153.97 171.541L150.84 173.367C150.71 173.464 150.481 173.432 150.318 173.367ZM183.375 148.297C183.505 148.362 183.505 148.493 183.375 148.591L180.245 150.384C180.115 150.481 179.887 150.481 179.724 150.384L176.105 148.297C175.942 148.199 175.942 148.069 176.072 148.004L179.235 146.178C179.365 146.113 179.593 146.113 179.724 146.178L183.375 148.297ZM133.758 188.949L130.139 186.863C129.976 186.765 129.976 186.635 130.106 186.57L133.269 184.744C133.399 184.679 133.595 184.679 133.758 184.744L137.376 186.863C137.539 186.928 137.539 187.059 137.409 187.156L134.279 188.949C134.116 189.047 133.921 189.047 133.758 188.949ZM190.156 156.415L186.504 154.296C186.374 154.23 186.341 154.1 186.472 154.002L189.634 152.209C189.764 152.111 189.993 152.111 190.123 152.209L193.774 154.296C193.905 154.393 193.937 154.524 193.774 154.589L190.645 156.415C190.514 156.48 190.286 156.48 190.156 156.415ZM180.343 156.056L176.724 153.97C176.561 153.872 176.561 153.741 176.692 153.676L179.854 151.851C179.984 151.785 180.213 151.785 180.343 151.851L183.962 153.97C184.125 154.035 184.125 154.165 183.994 154.263L180.865 156.056C180.702 156.154 180.506 156.154 180.343 156.056ZM188.591 151.296C188.721 151.394 188.721 151.525 188.591 151.59L185.461 153.415C185.298 153.481 185.103 153.481 184.94 153.415L181.321 151.296C181.158 151.231 181.158 151.101 181.288 151.003L184.451 149.21C184.581 149.112 184.809 149.112 184.94 149.21L188.591 151.296ZM185.885 148.33L189.047 146.537C189.178 146.439 189.406 146.472 189.536 146.537L198.371 151.655C198.534 151.72 198.534 151.851 198.403 151.916L195.241 153.741C195.111 153.839 194.883 153.807 194.752 153.741L185.918 148.623C185.787 148.558 185.755 148.428 185.885 148.33ZM175.746 154.491L179.398 156.61C179.528 156.675 179.561 156.806 179.398 156.904L176.268 158.697C176.138 158.794 175.909 158.794 175.779 158.697L172.128 156.61C171.997 156.512 171.965 156.382 172.095 156.317L175.257 154.491C175.388 154.426 175.616 154.426 175.746 154.491ZM141.158 174.475L144.776 176.594C144.939 176.659 144.939 176.79 144.809 176.855L141.679 178.68C141.516 178.778 141.321 178.746 141.158 178.68L137.539 176.561C137.376 176.496 137.376 176.366 137.507 176.301L140.669 174.475C140.799 174.377 140.995 174.41 141.158 174.475ZM181.908 156.936C181.777 156.871 181.777 156.741 181.908 156.643L185.037 154.85C185.168 154.752 185.396 154.752 185.559 154.85L189.178 156.936C189.341 157.034 189.341 157.164 189.21 157.23L186.048 159.055C185.918 159.12 185.689 159.12 185.559 159.055L181.908 156.936ZM145.754 171.802L149.373 173.921C149.503 173.986 149.536 174.116 149.406 174.182L146.243 176.007C146.113 176.105 145.885 176.072 145.754 176.007L142.103 173.888C141.973 173.823 141.973 173.693 142.103 173.627L145.233 171.802C145.363 171.704 145.591 171.737 145.754 171.802ZM107.123 200.099C106.993 200.001 106.993 199.87 107.123 199.805L110.253 197.98C110.383 197.914 110.612 197.914 110.775 198.012L114.393 200.099C114.556 200.196 114.556 200.294 114.426 200.392L111.264 202.218C111.133 202.283 110.905 202.283 110.775 202.185L107.123 200.099ZM104.352 195.698L107.971 197.817C108.134 197.882 108.134 198.012 108.004 198.11L104.841 199.903C104.711 200.001 104.483 200.001 104.352 199.903L100.734 197.817C100.571 197.719 100.571 197.588 100.701 197.523L103.831 195.698C103.994 195.632 104.189 195.632 104.352 195.698ZM115.371 199.544L111.72 197.458C111.59 197.36 111.557 197.23 111.687 197.165L114.85 195.339C114.98 195.274 115.208 195.274 115.339 195.372L118.99 197.458C119.12 197.556 119.153 197.654 118.99 197.751L115.86 199.577C115.73 199.642 115.502 199.642 115.371 199.544ZM119.968 196.904L116.317 194.785C116.186 194.72 116.154 194.589 116.317 194.524L119.446 192.698C119.577 192.601 119.805 192.633 119.935 192.698L123.586 194.817C123.717 194.883 123.749 195.013 123.619 195.078L120.457 196.904C120.326 197.002 120.098 196.969 119.968 196.904ZM124.564 194.231L120.913 192.144C120.783 192.046 120.75 191.916 120.913 191.851L124.043 190.025C124.173 189.96 124.401 189.96 124.532 190.058L128.183 192.144C128.313 192.242 128.346 192.372 128.216 192.438L125.053 194.263C124.923 194.328 124.695 194.328 124.564 194.231ZM108.949 193.057L112.568 195.143C112.731 195.241 112.731 195.372 112.6 195.437L109.471 197.262C109.308 197.328 109.112 197.328 108.949 197.262L105.33 195.143C105.167 195.078 105.167 194.948 105.298 194.85L108.427 193.057C108.59 192.959 108.786 192.959 108.949 193.057ZM113.546 190.416L117.164 192.503C117.327 192.568 117.327 192.698 117.197 192.796L114.067 194.622C113.904 194.687 113.709 194.687 113.546 194.589L109.927 192.503C109.764 192.405 109.764 192.275 109.894 192.209L113.057 190.384C113.187 190.319 113.383 190.319 113.546 190.416ZM131.932 179.789L135.583 181.875C135.714 181.973 135.714 182.103 135.583 182.169L132.454 183.994C132.323 184.059 132.095 184.059 131.932 183.994L128.313 181.875C128.15 181.81 128.15 181.68 128.281 181.582L131.443 179.789C131.573 179.691 131.802 179.691 131.932 179.789ZM127.335 182.429L130.987 184.548C131.117 184.614 131.117 184.744 130.987 184.842L127.857 186.635C127.727 186.733 127.498 186.733 127.335 186.635L123.717 184.548C123.554 184.451 123.554 184.32 123.684 184.255L126.846 182.429C126.977 182.364 127.205 182.364 127.335 182.429ZM136.529 177.116L140.18 179.235C140.31 179.3 140.31 179.43 140.18 179.528L137.05 181.321C136.92 181.419 136.692 181.419 136.529 181.321L132.91 179.235C132.747 179.137 132.747 179.006 132.877 178.941L136.04 177.116C136.17 177.05 136.398 177.05 136.529 177.116ZM118.142 187.743L121.761 189.862C121.924 189.927 121.924 190.058 121.793 190.123L118.664 191.949C118.501 192.014 118.305 192.014 118.142 191.949L114.524 189.83C114.361 189.764 114.361 189.634 114.491 189.569L117.653 187.743C117.784 187.645 118.012 187.678 118.142 187.743ZM122.739 185.103L126.39 187.189C126.52 187.287 126.52 187.417 126.39 187.482L123.26 189.308C123.097 189.373 122.902 189.373 122.739 189.275L119.12 187.189C118.957 187.091 118.957 186.961 119.088 186.896L122.25 185.07C122.38 185.005 122.608 185.005 122.739 185.103ZM118.37 203.815L114.752 201.696C114.589 201.631 114.589 201.5 114.719 201.435L117.881 199.61C118.012 199.512 118.24 199.544 118.37 199.61L122.022 201.729C122.152 201.794 122.152 201.924 122.022 201.989L118.892 203.815C118.729 203.913 118.533 203.88 118.37 203.815ZM91.9318 201.403L88.7696 203.196C88.6392 203.293 88.411 203.261 88.2806 203.196L84.6294 201.077C84.499 201.011 84.4664 200.881 84.6294 200.816L87.759 198.99C87.8894 198.925 88.1176 198.925 88.248 198.99L91.8992 201.109C92.0296 201.174 92.0622 201.305 91.9318 201.403ZM98.8104 203.424L93.953 206.195C93.8226 206.293 93.5944 206.26 93.464 206.195L89.8454 204.076C89.6824 204.011 89.6824 203.88 89.8128 203.815L94.6376 201.011C94.768 200.946 94.9962 200.946 95.1592 201.011L98.7778 203.13C98.9408 203.196 98.9408 203.326 98.8104 203.424ZM86.3246 197.328L82.4778 199.577C82.3474 199.642 82.1192 199.642 81.9562 199.544L78.3376 197.458C78.1746 197.36 78.1746 197.23 78.305 197.165L82.1844 194.915C82.3148 194.85 82.543 194.85 82.6734 194.948L86.3246 197.034C86.455 197.132 86.455 197.262 86.3246 197.328ZM85.64 193.22C85.5096 193.155 85.5096 193.024 85.64 192.927L88.7696 191.101C88.9 191.036 89.1282 191.036 89.2912 191.134L92.9098 193.22C93.0728 193.318 93.0728 193.448 92.9424 193.513L89.7802 195.339C89.6498 195.404 89.4216 195.404 89.2912 195.306L85.64 193.22ZM105.2 205.738L99.1364 209.227C99.006 209.292 98.7778 209.292 98.6474 209.194L94.9962 207.108C94.8658 207.01 94.8658 206.879 94.9962 206.814L101.027 203.326C101.19 203.261 101.386 203.261 101.549 203.326L105.167 205.445C105.33 205.51 105.33 205.641 105.2 205.738ZM108.232 209.976L104.352 212.226C104.222 212.291 103.994 212.291 103.831 212.193L100.212 210.107C100.049 210.009 100.049 209.879 100.18 209.813L104.059 207.597C104.189 207.499 104.418 207.499 104.548 207.597L108.199 209.683C108.33 209.781 108.362 209.911 108.232 209.976ZM119.805 173.497C119.674 173.432 119.674 173.301 119.805 173.204L122.934 171.411C123.065 171.313 123.293 171.313 123.456 171.411L127.075 173.497C127.238 173.595 127.238 173.725 127.107 173.79L123.945 175.616C123.815 175.681 123.586 175.681 123.456 175.616L119.805 173.497ZM110.612 178.778C110.481 178.713 110.449 178.583 110.579 178.485L113.741 176.692C113.872 176.594 114.1 176.627 114.23 176.692L117.881 178.811C118.012 178.876 118.044 179.006 117.881 179.072L114.752 180.897C114.621 180.962 114.393 180.962 114.263 180.897L110.612 178.778ZM90.204 190.547C90.0736 190.449 90.041 190.319 90.204 190.253L93.3336 188.428C93.464 188.363 93.6922 188.363 93.8226 188.46L97.4738 190.547C97.6042 190.645 97.6368 190.775 97.5064 190.84L94.3442 192.666C94.2138 192.731 93.9856 192.731 93.8552 192.633L90.204 190.547ZM115.176 176.138C115.045 176.04 115.013 175.909 115.176 175.844L118.305 174.019C118.436 173.953 118.664 173.953 118.794 174.051L122.445 176.138C122.576 176.203 122.608 176.333 122.478 176.431L119.316 178.257C119.185 178.322 118.957 178.322 118.827 178.224L115.176 176.138ZM105.982 181.451C105.819 181.386 105.819 181.256 105.95 181.158L109.112 179.332C109.242 179.267 109.471 179.267 109.601 179.365L113.252 181.451C113.383 181.549 113.383 181.68 113.252 181.745L110.123 183.57C109.992 183.636 109.764 183.636 109.601 183.538L105.982 181.451ZM114.328 212.128C114.458 212.226 114.491 212.356 114.361 212.421L109.503 215.225C109.373 215.29 109.145 215.29 109.014 215.192L105.363 213.106C105.233 213.041 105.2 212.91 105.363 212.813L110.188 210.009C110.318 209.944 110.546 209.944 110.677 210.042L114.328 212.128ZM99.3972 185.266C99.2668 185.168 99.2668 185.037 99.3972 184.972L102.527 183.147C102.657 183.081 102.885 183.081 103.048 183.179L106.667 185.266C106.83 185.363 106.83 185.494 106.7 185.559L103.537 187.385C103.407 187.45 103.179 187.45 103.048 187.352L99.3972 185.266ZM94.8006 187.939C94.6376 187.841 94.6376 187.711 94.768 187.645L97.9302 185.82C98.0606 185.755 98.2888 185.755 98.4192 185.82L102.07 187.939C102.201 188.004 102.201 188.134 102.07 188.232L98.9408 190.025C98.8104 190.123 98.5822 190.123 98.4192 190.025L94.8006 187.939ZM199.512 162.967C199.675 163.065 199.675 163.195 199.544 163.261L191.786 167.727C191.655 167.825 191.427 167.792 191.297 167.727L187.645 165.608C187.515 165.543 187.515 165.412 187.645 165.347L195.372 160.848C195.502 160.783 195.73 160.783 195.893 160.881L199.512 162.967ZM189.341 168.835C189.471 168.9 189.504 169.031 189.373 169.129L186.211 170.922C186.081 171.019 185.852 171.019 185.722 170.922L182.071 168.835C181.94 168.737 181.908 168.607 182.038 168.542L185.2 166.716C185.331 166.651 185.559 166.651 185.689 166.716L189.341 168.835ZM122.934 201.207L119.316 199.088C119.153 199.023 119.153 198.892 119.283 198.795L122.413 197.002C122.576 196.904 122.771 196.904 122.934 197.002L126.553 199.088C126.716 199.186 126.716 199.316 126.586 199.381L123.456 201.207C123.293 201.272 123.097 201.272 122.934 201.207ZM180.147 174.149C180.31 174.247 180.31 174.377 180.18 174.442L177.018 176.268C176.887 176.333 176.659 176.333 176.529 176.235L172.878 174.149C172.747 174.084 172.747 173.953 172.878 173.856L176.007 172.03C176.138 171.965 176.366 171.965 176.529 172.063L180.147 174.149ZM204.108 160.327C204.239 160.392 204.239 160.522 204.108 160.587L200.979 162.413C200.848 162.478 200.62 162.478 200.457 162.413L196.839 160.294C196.676 160.229 196.676 160.098 196.806 160.033L199.968 158.208C200.099 158.11 200.327 158.142 200.457 158.208L204.108 160.327ZM208.738 157.979L205.575 159.772C205.445 159.87 205.217 159.87 205.086 159.772L196.252 154.687C196.089 154.589 196.089 154.459 196.219 154.393L199.381 152.568C199.512 152.503 199.74 152.503 199.87 152.568L208.705 157.686C208.835 157.751 208.868 157.882 208.738 157.979ZM162.967 184.092C163.13 184.157 163.13 184.288 163 184.385L159.12 186.602C158.99 186.667 158.762 186.667 158.631 186.602L154.98 184.483C154.85 184.418 154.817 184.288 154.948 184.19L158.827 181.973C158.957 181.908 159.186 181.908 159.349 181.973L162.967 184.092ZM174.573 177.409C174.703 177.474 174.736 177.605 174.573 177.67L169.748 180.473C169.618 180.539 169.389 180.539 169.259 180.473L165.608 178.354C165.477 178.289 165.445 178.159 165.575 178.061L170.433 175.29C170.563 175.192 170.791 175.225 170.922 175.29L174.573 177.409ZM152.307 190.253C152.47 190.351 152.47 190.482 152.34 190.547L126.455 205.51C126.325 205.575 126.097 205.575 125.934 205.478L122.315 203.391C122.152 203.293 122.152 203.163 122.282 203.098L148.167 188.167C148.33 188.069 148.525 188.069 148.688 188.167L152.307 190.253ZM124.956 206.032C125.119 206.13 125.119 206.26 124.988 206.325L121.109 208.575C120.978 208.64 120.75 208.64 120.62 208.542L116.969 206.456C116.838 206.358 116.806 206.227 116.936 206.162L120.815 203.913C120.946 203.848 121.174 203.848 121.337 203.945L124.956 206.032ZM157.621 187.156C157.751 187.254 157.751 187.385 157.621 187.45L153.741 189.699C153.611 189.764 153.383 189.764 153.252 189.667L149.601 187.58C149.471 187.482 149.471 187.352 149.601 187.287L153.481 185.037C153.611 184.972 153.839 184.972 153.97 185.07L157.621 187.156ZM119.642 209.096C119.772 209.161 119.772 209.292 119.642 209.357L115.795 211.606C115.632 211.672 115.436 211.672 115.273 211.606L111.655 209.487C111.492 209.422 111.492 209.292 111.622 209.194L115.502 206.977C115.632 206.879 115.86 206.912 115.991 206.977L119.642 209.096ZM168.281 181.028C168.411 181.093 168.444 181.223 168.314 181.321L164.434 183.538C164.304 183.636 164.076 183.636 163.913 183.538L160.294 181.451C160.131 181.354 160.131 181.223 160.261 181.158L164.141 178.909C164.271 178.843 164.499 178.843 164.63 178.909L168.281 181.028ZM184.744 171.541C184.907 171.639 184.907 171.769 184.777 171.834L181.614 173.66C181.484 173.725 181.256 173.725 181.125 173.627L177.474 171.541C177.344 171.443 177.344 171.313 177.474 171.248L180.604 169.422C180.734 169.357 180.962 169.357 181.125 169.455L184.744 171.541ZM190.677 162.087L187.026 160.001C186.896 159.903 186.863 159.805 187.026 159.707L190.156 157.882C190.286 157.816 190.514 157.816 190.645 157.914L194.296 160.001C194.426 160.098 194.459 160.229 194.328 160.294L191.166 162.12C191.036 162.185 190.808 162.185 190.677 162.087ZM170.107 161.957L166.488 159.87C166.325 159.772 166.325 159.642 166.455 159.577L169.585 157.751C169.748 157.686 169.944 157.686 170.107 157.784L173.725 159.87C173.888 159.968 173.888 160.098 173.758 160.164L170.628 161.989C170.465 162.054 170.27 162.054 170.107 161.957ZM159.707 179.984L156.056 177.898C155.926 177.8 155.893 177.67 156.023 177.605L165.249 172.291C165.38 172.193 165.608 172.226 165.738 172.291L169.357 174.41C169.52 174.475 169.52 174.605 169.389 174.671L160.196 179.984C160.066 180.082 159.838 180.082 159.707 179.984ZM182.429 162.641C182.299 162.576 182.266 162.446 182.429 162.38L185.559 160.555C185.689 160.457 185.918 160.49 186.048 160.555L189.699 162.674C189.83 162.739 189.862 162.869 189.732 162.935L186.57 164.76C186.439 164.858 186.211 164.825 186.081 164.76L182.429 162.641ZM180.865 161.728L177.213 159.642C177.083 159.544 177.083 159.414 177.213 159.349L180.343 157.523C180.473 157.458 180.702 157.458 180.865 157.556L184.483 159.642C184.646 159.74 184.646 159.838 184.516 159.935L181.354 161.761C181.223 161.826 180.995 161.826 180.865 161.728ZM155.078 182.625L151.459 180.506C151.296 180.441 151.296 180.31 151.427 180.245L154.589 178.42C154.719 178.322 154.948 178.354 155.078 178.42L158.697 180.539C158.86 180.604 158.86 180.734 158.729 180.799L155.6 182.625C155.437 182.69 155.241 182.69 155.078 182.625ZM172.258 168.509C172.095 168.411 172.095 168.281 172.226 168.216L175.388 166.39C175.518 166.325 175.746 166.325 175.877 166.423L179.528 168.509C179.658 168.607 179.658 168.737 179.528 168.803L176.398 170.628C176.268 170.693 176.04 170.693 175.877 170.596L172.258 168.509ZM132.128 195.893L128.476 193.807C128.346 193.709 128.313 193.579 128.444 193.513L131.606 191.688C131.736 191.623 131.965 191.623 132.095 191.72L135.746 193.807C135.877 193.905 135.909 194.035 135.746 194.1L132.617 195.926C132.486 195.991 132.258 195.991 132.128 195.893ZM136.724 193.253L133.073 191.134C132.943 191.068 132.91 190.938 133.04 190.873L136.203 189.047C136.333 188.982 136.561 188.982 136.692 189.047L140.343 191.166C140.473 191.231 140.506 191.362 140.343 191.46L137.213 193.253C137.083 193.35 136.855 193.318 136.724 193.253ZM127.531 198.566L123.88 196.447C123.749 196.382 123.717 196.252 123.847 196.154L127.009 194.361C127.14 194.263 127.368 194.296 127.498 194.361L131.15 196.447C131.28 196.545 131.313 196.676 131.15 196.741L128.02 198.566C127.89 198.632 127.661 198.632 127.531 198.566ZM145.917 187.939L142.266 185.852C142.136 185.755 142.103 185.624 142.266 185.559L145.396 183.733C145.526 183.668 145.754 183.668 145.885 183.733L149.536 185.852C149.666 185.918 149.699 186.048 149.569 186.146L146.406 187.939C146.276 188.037 146.048 188.037 145.917 187.939ZM141.321 190.579L137.67 188.493C137.539 188.428 137.507 188.297 137.67 188.2L140.799 186.374C140.93 186.309 141.158 186.309 141.288 186.407L144.939 188.493C145.07 188.591 145.102 188.721 144.972 188.786L141.81 190.612C141.679 190.677 141.451 190.677 141.321 190.579ZM150.514 185.298L146.863 183.179C146.732 183.114 146.7 182.984 146.863 182.886L149.992 181.093C150.123 180.995 150.351 180.995 150.481 181.093L154.133 183.179C154.263 183.277 154.296 183.407 154.165 183.473L151.003 185.298C150.873 185.363 150.644 185.363 150.514 185.298ZM171.085 145.461C170.922 145.396 170.922 145.265 171.052 145.168L174.214 143.375C174.345 143.277 174.573 143.277 174.703 143.375L175.681 143.929C175.812 144.027 175.812 144.157 175.681 144.222L172.552 146.048C172.421 146.113 172.193 146.113 172.03 146.015L171.085 145.461ZM145.82 158.534C145.657 158.468 145.657 158.338 145.787 158.24L148.917 156.415C149.08 156.349 149.275 156.349 149.438 156.447L153.057 158.534C153.22 158.631 153.22 158.762 153.089 158.827L149.927 160.653C149.797 160.718 149.569 160.718 149.438 160.62L145.82 158.534ZM155.013 153.252C154.882 153.155 154.882 153.024 155.013 152.959L158.142 151.133C158.273 151.068 158.501 151.068 158.631 151.133L162.283 153.252C162.413 153.318 162.446 153.448 162.315 153.546L159.153 155.339C159.023 155.437 158.794 155.437 158.664 155.339L155.013 153.252ZM140.18 161.794C140.049 161.728 140.049 161.598 140.18 161.5L143.309 159.707C143.472 159.609 143.668 159.642 143.831 159.707L147.45 161.794C147.613 161.891 147.613 162.022 147.482 162.087L144.32 163.913C144.19 163.978 143.961 163.978 143.831 163.913L140.18 161.794ZM150.384 155.893C150.253 155.795 150.253 155.665 150.384 155.6L153.513 153.774C153.644 153.709 153.872 153.709 154.035 153.807L157.653 155.893C157.816 155.991 157.816 156.121 157.686 156.186L154.524 158.012C154.393 158.077 154.165 158.077 154.035 157.979L150.384 155.893ZM130.987 167.107C130.824 167.01 130.824 166.879 130.954 166.814L134.116 164.988C134.247 164.923 134.442 164.923 134.605 165.021L138.224 167.107C138.387 167.205 138.387 167.336 138.256 167.401L135.127 169.226C134.964 169.292 134.768 169.292 134.605 169.194L130.987 167.107ZM135.583 164.467C135.453 164.369 135.453 164.239 135.583 164.173L138.713 162.348C138.843 162.283 139.071 162.283 139.202 162.38L142.853 164.467C142.983 164.565 143.016 164.695 142.886 164.76L139.723 166.586C139.593 166.651 139.365 166.651 139.234 166.553L135.583 164.467ZM161.891 150.84C161.728 150.742 161.728 150.612 161.859 150.547L165.021 148.721C165.151 148.656 165.38 148.656 165.51 148.754L166.488 149.308C166.618 149.373 166.618 149.503 166.488 149.601L163.358 151.394C163.228 151.492 163 151.492 162.837 151.394L161.891 150.84ZM175.681 142.886C175.551 142.788 175.551 142.657 175.681 142.592L178.811 140.767C178.941 140.701 179.169 140.701 179.332 140.767L180.278 141.353C180.441 141.419 180.441 141.549 180.31 141.614L177.181 143.44C177.018 143.538 176.822 143.505 176.659 143.44L175.681 142.886ZM180.669 145.754C180.506 145.657 180.506 145.526 180.636 145.461L183.799 143.635C183.929 143.57 184.157 143.57 184.288 143.668L187.939 145.754C188.069 145.852 188.069 145.983 187.939 146.048L184.809 147.873C184.679 147.939 184.451 147.939 184.288 147.841L180.669 145.754ZM195.306 159.512L191.655 157.425C191.525 157.327 191.525 157.197 191.655 157.132L194.785 155.306C194.915 155.241 195.143 155.241 195.306 155.339L198.925 157.425C199.088 157.49 199.088 157.621 198.958 157.719L195.795 159.544C195.665 159.609 195.437 159.609 195.306 159.512ZM166.521 148.199C166.358 148.134 166.358 148.004 166.488 147.906L169.65 146.113C169.781 146.015 170.009 146.015 170.139 146.113L171.117 146.667C171.248 146.765 171.248 146.863 171.117 146.961L167.988 148.786C167.857 148.851 167.629 148.851 167.466 148.754L166.521 148.199ZM126.423 169.813C126.292 169.748 126.292 169.618 126.423 169.52L129.552 167.727C129.683 167.629 129.911 167.629 130.074 167.727L133.692 169.813C133.855 169.911 133.855 170.041 133.725 170.107L130.563 171.932C130.432 171.997 130.204 171.997 130.074 171.932L126.423 169.813Z" fill="#455A64"/>
<path d="M150.481 199.414L181.549 181.484C182.462 180.93 183.994 180.93 184.94 181.484L202.739 191.753C203.652 192.307 203.652 193.155 202.739 193.709L171.671 211.639C170.759 212.161 169.226 212.161 168.281 211.639L150.481 201.37C149.569 200.816 149.569 199.936 150.481 199.414Z" fill="#263238"/>
</g>
<path d="M207.597 113.22L207.564 113.187L202.25 110.123C201.957 109.992 201.501 110.123 200.946 110.547C196.024 114.296 189.406 115.469 183.962 113.741C183.614 113.415 183.288 113.078 182.984 112.731C182.94 112.687 182.908 112.644 182.886 112.6C182.69 112.405 182.506 112.263 182.332 112.177L182.234 112.111L176.92 109.08C176.333 108.786 175.779 109.08 175.421 109.96C170.302 122.706 159.381 135.616 152.079 138.843C151.557 139.072 151.036 139.43 150.645 139.887C150.123 140.506 149.83 141.223 149.83 141.973L150.905 170.563C150.905 178.844 154.394 187.548 161.5 191.818L166.977 194.98L167.075 195.013C169.813 196.578 173.041 197.491 176.822 197.491C177.583 197.491 178.355 197.458 179.137 197.393C180.506 197.263 182.364 196.285 183.31 195.306C199.219 178.876 206.945 156.643 206.945 144.32L207.988 114.426C208.021 113.774 207.858 113.383 207.597 113.22Z" fill="#582357"/>
<path d="M207.988 114.426L206.945 144.32C206.945 156.643 199.218 178.876 183.31 195.307C182.364 196.285 180.506 197.263 179.137 197.393C178.354 197.458 177.583 197.491 176.822 197.491C173.041 197.491 169.813 196.578 167.075 195.013L166.977 194.981L166.781 194.85C159.675 190.612 156.186 181.875 156.186 173.628L155.143 145.037C155.111 144.288 155.437 143.538 155.958 142.951C156.349 142.495 156.838 142.136 157.393 141.875C164.662 138.648 175.583 125.738 180.702 113.024C181.093 112.111 181.647 111.818 182.234 112.111L182.332 112.177C182.505 112.263 182.69 112.405 182.886 112.6C182.907 112.644 182.94 112.687 182.984 112.731C188.428 119.055 199.121 119.055 206.26 113.578C206.782 113.187 207.238 113.057 207.564 113.187L207.597 113.22C207.857 113.383 208.02 113.774 207.988 114.426Z" fill="#582357"/>
<path opacity="0.4" d="M207.564 113.187C207.238 113.024 206.782 113.155 206.26 113.578C199.544 118.729 189.667 119.023 183.994 113.741C189.406 115.469 196.024 114.296 200.946 110.514C201.5 110.123 201.957 109.992 202.25 110.123L207.564 113.187Z" fill="white"/>
<path opacity="0.4" d="M182.234 112.111C181.647 111.818 181.093 112.111 180.702 113.024C175.583 125.738 164.662 138.648 157.393 141.875C156.838 142.103 156.349 142.495 155.958 142.951C155.806 143.103 155.687 143.266 155.6 143.44L150.286 140.376C150.395 140.223 150.514 140.06 150.644 139.887C150.731 139.8 150.807 139.724 150.873 139.658H150.905C150.927 139.615 150.949 139.582 150.97 139.561C151.014 139.539 151.047 139.506 151.068 139.463C151.362 139.202 151.72 138.974 152.079 138.811C159.381 135.583 170.302 122.706 175.42 109.96C175.779 109.047 176.333 108.786 176.92 109.047L182.234 112.111Z" fill="white"/>
<path d="M150.905 139.626C150.927 139.604 150.949 139.582 150.971 139.561C150.949 139.582 150.927 139.615 150.905 139.658C150.905 139.658 150.873 139.626 150.905 139.626Z" fill="#582357"/>
<path opacity="0.1" d="M150.971 139.561C150.949 139.582 150.927 139.615 150.905 139.658C150.905 139.658 150.873 139.626 150.905 139.626C150.927 139.604 150.949 139.582 150.971 139.561Z" fill="black"/>
<path opacity="0.1" d="M166.977 194.981L161.5 191.786C154.394 187.548 150.905 178.844 150.905 170.563L149.83 141.973C149.83 141.419 149.993 140.865 150.286 140.376L155.6 143.44C155.306 143.929 155.111 144.483 155.143 145.037L156.187 173.628C156.187 181.875 159.675 190.612 166.782 194.85L166.977 194.981Z" fill="black"/>
<path d="M185.82 168.705L177.344 173.595L178.648 158.273C177.637 157.751 176.985 156.415 176.985 154.524C176.985 151.166 179.039 147.222 181.582 145.787C184.092 144.32 186.146 145.852 186.146 149.243C186.146 151.133 185.494 153.187 184.483 154.915L185.82 168.705Z" fill="#455A64"/>
<path d="M185.82 168.705L178.126 164.271L177.344 173.595L185.82 168.705Z" fill="#37474F"/>
<path d="M181.582 145.787C179.919 146.733 178.485 148.754 177.67 150.97L184.483 154.915C185.494 153.187 186.146 151.133 186.146 149.243C186.146 145.852 184.092 144.32 181.582 145.787Z" fill="#37474F"/>
<defs>
<filter id="filter0_d_2439_28896" x="44.2095" y="20.8712" width="214.546" height="240.187" filterUnits="userSpaceOnUse" color-interpolation-filters="sRGB">
<feFlood flood-opacity="0" result="BackgroundImageFix"/>
<feColorMatrix in="SourceAlpha" type="matrix" values="0 0 0 0 0 0 0 0 0 0 0 0 0 0 0 0 0 0 127 0" result="hardAlpha"/>
<feOffset dx="4" dy="12"/>
<feGaussianBlur stdDeviation="2.65"/>
<feComposite in2="hardAlpha" operator="out"/>
<feColorMatrix type="matrix" values="0 0 0 0 0 0 0 0 0 0 0 0 0 0 0 0 0 0 0.25 0"/>
<feBlend mode="normal" in2="BackgroundImageFix" result="effect1_dropShadow_2439_28896"/>
<feBlend mode="normal" in="SourceGraphic" in2="effect1_dropShadow_2439_28896" result="shape"/>
</filter>
</defs>
</svg>
