<svg width="19" height="19" viewBox="0 0 19 19" fill="none" xmlns="http://www.w3.org/2000/svg">
<path d="M11.6313 7.3788L10.0366 5.25253H8.44192H7.91036L6.84722 6.31567V8.44193V9.50506L8.44192 11.0998L7.91036 12.1629L5.25252 12.6945L4.18939 13.7576L5.25252 14.8207V16.4154L5.78409 16.947L6.31566 17.4786L7.91036 16.947V16.4154H10.0366L11.0998 16.947L12.1629 17.4786L13.226 16.947V15.8839V14.8207L14.2892 13.7576L13.226 12.6945L10.5682 10.5682L11.0998 10.0366L11.6313 7.3788Z" fill="#EBC292"/>
<path d="M10.9268 11.0887C11.0685 10.9875 11.1899 10.8863 11.3113 10.7446C12.303 9.63155 12.1411 7.7494 12.1208 7.54702C12.0196 5.36131 10.4006 4.81488 9.4494 4.85536C8.49821 4.81488 6.89941 5.36131 6.77798 7.54702C6.75774 7.72917 6.59583 9.63155 7.5875 10.7446C7.72917 10.8863 7.87083 11.028 8.03274 11.1292C7.8506 11.4125 7.28393 11.9792 5.42202 12.4649C5.21964 12.5256 5.09821 12.728 5.13869 12.9304C5.17917 13.1125 5.34107 13.2137 5.50298 13.2137C5.54345 13.2137 5.56369 13.2137 5.60417 13.1935C7.72917 12.6673 8.47798 11.9387 8.74107 11.453C8.94345 11.5137 9.16607 11.5339 9.40893 11.5339H9.42917H9.4494H9.46964H9.48988C9.75298 11.5339 9.99583 11.4935 10.2387 11.4327C10.4815 11.9185 11.2304 12.6673 13.3756 13.1935C13.4161 13.1935 13.4363 13.2137 13.4768 13.2137C13.6387 13.2137 13.8006 13.0923 13.8411 12.9304C13.9018 12.728 13.7601 12.5256 13.5577 12.4649C11.5946 11.9792 11.0685 11.372 10.9268 11.0887ZM9.4494 10.7851C9.42917 10.7851 9.42917 10.7851 9.42917 10.7851C8.88274 10.7851 8.45774 10.603 8.15417 10.2589C7.36488 9.36846 7.52679 7.64822 7.52679 7.62798V7.60774C7.60774 5.76607 8.94345 5.6244 9.34821 5.6244C9.36845 5.6244 9.38869 5.6244 9.40893 5.6244H9.42917C9.73274 5.60417 11.2304 5.64465 11.3113 7.60774V7.62798C11.372 8.11369 11.3518 9.51012 10.6839 10.2589C10.4208 10.603 9.99583 10.7851 9.4494 10.7851ZM13.4363 1.55655L12.3232 1.09107C12.0601 0.969643 11.7565 0.969643 11.4732 1.09107C11.2101 1.2125 10.9875 1.41488 10.8863 1.67797L10.5827 2.42679C9.85417 2.30536 9.12559 2.30536 8.41726 2.42679L8.11369 1.67797C7.99226 1.41488 7.78988 1.19226 7.52679 1.09107C7.26369 0.969643 6.96012 0.969643 6.67679 1.09107L5.56369 1.55655C4.99703 1.77917 4.73393 2.42678 4.97678 2.99345L5.28036 3.74226C4.69345 4.16726 4.16726 4.69345 3.74226 5.28036L2.99345 4.97679C2.73036 4.85536 2.42678 4.85536 2.14345 4.97679C1.88036 5.09822 1.65774 5.3006 1.55655 5.56369L1.09107 6.67679C0.868452 7.24345 1.13155 7.89107 1.67797 8.11369L2.42679 8.41726C2.30536 9.14584 2.30536 9.8744 2.42679 10.5827L1.67797 10.8863C1.41488 11.0077 1.19226 11.2101 1.09107 11.4732C0.969643 11.7363 0.969643 12.0399 1.09107 12.3232L1.55655 13.4363C1.67798 13.6994 1.88036 13.922 2.14345 14.0232C2.40655 14.1446 2.71012 14.1446 2.99345 14.0232L3.74226 13.7196C4.16726 14.3065 4.69345 14.8327 5.28036 15.2577L4.97678 16.0065C4.85536 16.2696 4.85536 16.5732 4.97678 16.8565C5.09821 17.1196 5.3006 17.3423 5.56369 17.4435L6.67679 17.9089C7.24345 18.1315 7.89107 17.8685 8.11369 17.322L8.41726 16.5732C9.14583 16.6946 9.8744 16.6946 10.5827 16.5732L10.8863 17.322C11.0685 17.747 11.4732 18.0101 11.8982 18.0101C12.0399 18.0101 12.1815 17.9899 12.3232 17.9292L13.4363 17.4637C14.003 17.2411 14.2661 16.5935 14.0232 16.0268L13.7196 15.278C14.3065 14.853 14.8327 14.3268 15.2577 13.7399L16.0065 14.0435C16.2696 14.1649 16.5732 14.1649 16.8565 14.0435C17.1196 13.922 17.3423 13.7196 17.4435 13.4565L17.9089 12.3435C18.0304 12.0804 18.0304 11.7768 17.9089 11.4935C17.7875 11.2101 17.5851 11.0077 17.322 10.9065L16.5732 10.603C16.6946 9.8744 16.6946 9.14584 16.5732 8.4375L17.322 8.13393C17.8887 7.91131 18.1518 7.26369 17.9089 6.69703L17.4435 5.58393C17.2208 5.01726 16.5732 4.75417 16.0065 4.99703L15.2577 5.3006C14.8327 4.71369 14.3065 4.1875 13.7196 3.7625L14.0232 3.01369C14.2661 2.42679 14.003 1.77917 13.4363 1.55655ZM14.8125 5.94821C14.9137 6.08988 15.0958 6.1506 15.278 6.08988L16.3101 5.66488C16.4923 5.58393 16.6946 5.68512 16.7554 5.84702L17.2208 6.96012C17.3018 7.14226 17.2006 7.34465 17.0387 7.40536L16.0065 7.83036C15.8446 7.89107 15.7435 8.07321 15.7839 8.25536C15.9458 9.08512 15.9458 9.91488 15.7839 10.7446C15.7435 10.9268 15.8446 11.1089 16.0065 11.1696L17.0387 11.5946C17.1196 11.6351 17.1804 11.6958 17.2208 11.7768C17.2613 11.8577 17.2613 11.9589 17.2208 12.0399L16.7554 13.153C16.7149 13.2339 16.6542 13.2946 16.5732 13.3351C16.4923 13.3756 16.3911 13.3756 16.3101 13.3351L15.278 12.9101C15.1161 12.8494 14.9137 12.8899 14.8125 13.0518C14.347 13.7601 13.7601 14.347 13.0518 14.8125C12.9101 14.9137 12.8494 15.0958 12.9101 15.278L13.3351 16.3101C13.4161 16.4923 13.3149 16.6946 13.153 16.7554L12.0399 17.2208C11.8577 17.3018 11.6554 17.2006 11.5946 17.0387L11.1696 16.0065C11.1089 15.8649 10.9673 15.7637 10.8256 15.7637C10.8054 15.7637 10.7851 15.7637 10.7446 15.7637C9.91488 15.9256 9.08512 15.9256 8.25536 15.7637C8.07321 15.7232 7.89107 15.8244 7.83036 15.9863L7.40536 17.0185C7.3244 17.2006 7.14226 17.2815 6.96012 17.2006L5.84702 16.7351C5.76607 16.6946 5.70536 16.6339 5.66488 16.553C5.62441 16.472 5.62441 16.3708 5.66488 16.2899L6.08988 15.2577C6.15059 15.0958 6.11012 14.8935 5.94821 14.7923C5.23988 14.3268 4.65298 13.7399 4.1875 13.0315C4.08631 12.8899 3.90417 12.8292 3.72202 12.8899L2.68988 13.3149C2.60893 13.3554 2.50774 13.3554 2.42679 13.3149C2.34583 13.2744 2.28512 13.2137 2.24464 13.1327L1.77917 12.0196C1.69821 11.8375 1.79941 11.6351 1.96131 11.5744L2.99345 11.1494C3.15536 11.0887 3.25655 10.9065 3.21607 10.7244C3.05417 9.89464 3.05417 9.06488 3.21607 8.23512C3.25655 8.05298 3.15536 7.87084 2.99345 7.81012L1.96131 7.38512C1.77917 7.30417 1.69821 7.12202 1.77917 6.93988L2.24464 5.82678C2.28512 5.74583 2.34583 5.68512 2.42679 5.64464C2.50774 5.60417 2.60893 5.60417 2.68988 5.64464L3.72202 6.06964C3.88393 6.13036 4.08631 6.08988 4.1875 5.92797C4.65298 5.21964 5.23988 4.63274 5.94821 4.16726C6.08988 4.06607 6.15059 3.88393 6.08988 3.70178L5.66488 2.66965C5.58393 2.4875 5.68512 2.28512 5.84702 2.22441L6.96012 1.75893C7.04107 1.71846 7.14226 1.71846 7.22321 1.75893C7.30417 1.79941 7.36488 1.86012 7.40536 1.94107L7.83036 2.97322C7.89107 3.13512 8.07321 3.23631 8.25536 3.19583C9.08512 3.03393 9.91488 3.03393 10.7446 3.19583C10.9268 3.23631 11.1089 3.13512 11.1696 2.97322L11.5946 1.94107C11.6351 1.86012 11.6958 1.79941 11.7768 1.75893C11.8577 1.71846 11.9589 1.71846 12.0399 1.75893L13.153 2.22441C13.3351 2.30536 13.4161 2.4875 13.3351 2.66965L12.9101 3.70178C12.8494 3.86369 12.8899 4.06607 13.0518 4.16726C13.7601 4.65298 14.347 5.23988 14.8125 5.94821Z" fill="#0F1E56" stroke="#0F1E56" stroke-width="0.8"/>
</svg>
