<svg width="18" height="20" viewBox="0 0 18 20" fill="none" xmlns="http://www.w3.org/2000/svg">
<path id="Vector" d="M17.7972 12.6159L15.9231 10.749V8.27586C15.9209 6.56678 15.2827 4.91921 14.1318 3.65171C12.9809 2.38422 11.3991 1.58685 9.69231 1.41379V0H8.30769V1.41379C6.60086 1.58685 5.01906 2.38422 3.86818 3.65171C2.71729 4.91921 2.07907 6.56678 2.07692 8.27586V10.749L0.202846 12.6159C0.0730043 12.7452 3.92105e-05 12.9206 0 13.1034V15.1724C0 15.3553 0.0729393 15.5307 0.202772 15.6601C0.332605 15.7894 0.508696 15.8621 0.692308 15.8621H5.53846V16.5517C5.53846 17.4663 5.90316 18.3433 6.55232 18.99C7.20149 19.6367 8.08194 20 9 20C9.91806 20 10.7985 19.6367 11.4477 18.99C12.0968 18.3433 12.4615 17.4663 12.4615 16.5517V15.8621H17.3077C17.4913 15.8621 17.6674 15.7894 17.7972 15.6601C17.9271 15.5307 18 15.3553 18 15.1724V13.1034C18 12.9206 17.927 12.7452 17.7972 12.6159ZM11.0769 16.5517C11.0769 17.1004 10.8581 17.6267 10.4686 18.0147C10.0791 18.4027 9.55083 18.6207 9 18.6207C8.44917 18.6207 7.92089 18.4027 7.53139 18.0147C7.14189 17.6267 6.92308 17.1004 6.92308 16.5517V15.8621H11.0769V16.5517Z" fill="#582357"/>
</svg>
