<svg width="22" height="16" viewBox="0 0 22 16" fill="none" xmlns="http://www.w3.org/2000/svg">
<path d="M0.189914 0.412904C0.345413 0.198567 0.579651 0.0547389 0.841148 0.0130292C1.10264 -0.0286804 1.37 0.0351415 1.58447 0.190469L20.8977 14.1759C21.0081 14.2512 21.1022 14.3479 21.1745 14.4602C21.2468 14.5725 21.2958 14.6981 21.3188 14.8297C21.3417 14.9613 21.3379 15.0962 21.3078 15.2263C21.2777 15.3564 21.2218 15.4792 21.1434 15.5873C21.065 15.6955 20.9657 15.7868 20.8514 15.8559C20.7371 15.925 20.6101 15.9705 20.4779 15.9897C20.3458 16.0088 20.2111 16.0013 20.0819 15.9675C19.9526 15.9337 19.8315 15.8744 19.7256 15.7929L16.7314 13.6245C15.1117 14.9045 13.0419 15.9834 10.655 15.9834C8.01645 15.9834 5.76679 14.6621 4.08454 13.2156C2.39296 11.7638 1.17156 10.0922 0.572183 9.19045C0.335948 8.83604 0.20989 8.41963 0.20989 7.9937C0.20989 7.56776 0.335948 7.15136 0.572183 6.79694C1.04236 6.08701 1.89747 4.90557 3.06027 3.7268L0.412349 1.80746C0.198012 1.65196 0.0541839 1.41772 0.0124742 1.15622C-0.0292354 0.894725 0.0345866 0.627366 0.189914 0.412904ZM2.23579 7.90113C2.21705 7.92764 2.20683 7.95923 2.20649 7.9917C2.2056 8.021 2.21537 8.05119 2.23579 8.08227C2.78455 8.90941 3.89007 10.4132 5.38718 11.7012C6.89229 12.9972 8.69308 13.9855 10.655 13.9855C12.2467 13.9855 13.7318 13.3355 15.0372 12.3991L12.0709 10.2494C11.6212 10.5318 11.0973 10.6734 10.5665 10.656C10.0357 10.6386 9.52227 10.4629 9.09207 10.1515C8.66186 9.84012 8.33454 9.40726 8.15214 8.90849C7.96973 8.40972 7.94057 7.86782 8.0684 7.35236L4.6999 4.91223C3.7784 5.82157 2.9527 6.82312 2.23579 7.90113ZM10.655 1.99792C9.96776 1.99792 9.30045 2.1178 8.65845 2.33224C8.53308 2.37735 8.39995 2.39691 8.2669 2.38979C8.13385 2.38267 8.00357 2.34901 7.88373 2.29078C7.76389 2.23255 7.65691 2.15094 7.56908 2.05074C7.48125 1.95055 7.41436 1.83379 7.37233 1.70736C7.3303 1.58092 7.31399 1.44735 7.32436 1.31452C7.33473 1.18168 7.37157 1.05227 7.4327 0.933881C7.49384 0.815496 7.57804 0.710538 7.68035 0.625184C7.78266 0.539831 7.90101 0.475806 8.02844 0.43688C8.87458 0.150131 9.76164 0.00258729 10.655 0C13.2936 0 15.5433 1.32129 17.2256 2.76779C18.9171 4.22095 20.1385 5.89121 20.7379 6.79428C20.9744 7.14883 21.1006 7.56549 21.1006 7.9917C21.1006 8.41791 20.9744 8.83457 20.7379 9.18912C20.5914 9.41023 20.4076 9.67528 20.1918 9.97098C20.1142 10.0768 20.0166 10.1663 19.9044 10.2344C19.7922 10.3025 19.6678 10.3478 19.5381 10.3678C19.4084 10.3877 19.2761 10.382 19.1486 10.3508C19.0211 10.3196 18.9011 10.2637 18.7953 10.1861C18.6894 10.1085 18.5999 10.0109 18.5318 9.89869C18.4638 9.78652 18.4184 9.66204 18.3985 9.53236C18.3785 9.40268 18.3843 9.27034 18.4154 9.14288C18.4466 9.01543 18.5026 8.89536 18.5801 8.78954C18.7773 8.52182 18.9424 8.28073 19.0743 8.0836C19.0929 8.05682 19.1029 8.02498 19.1029 7.99237C19.1029 7.95975 19.0929 7.92791 19.0743 7.90113C18.5255 7.07399 17.42 5.57021 15.9229 4.28222C14.4178 2.98623 12.617 1.99792 10.655 1.99792Z" fill="#8E8CAA"/>
</svg>
