<svg width="20" height="17" viewBox="0 0 20 17" fill="none" xmlns="http://www.w3.org/2000/svg">
<g id="Group 289586">
<g id="Group 289583">
<path id="Rectangle 2770" d="M10.0426 7.08386H13.8161V15.8048H10.0426V7.08386Z" fill="#EBC292"/>
<g id="Group">
<path id="Vector" d="M10.6617 6.5224C10.0417 6.5224 9.53776 7.02631 9.53776 7.64634V8.83959C9.34575 8.70753 7.17463 8.79276 6.91507 8.77028C6.29503 8.77028 5.79111 9.27419 5.79111 9.89422V15.1894H1.85732C0.626592 15.2203 0.619086 15.8559 1.85732 15.8887H18.342C19.5709 15.8587 19.5821 15.2231 18.342 15.1894H17.78V2.40131C17.78 1.78128 17.2761 1.27737 16.6561 1.27737H14.4082C13.7881 1.27737 13.2842 1.78128 13.2842 2.40131V6.59183C13.0922 6.45976 10.9213 6.54582 10.6617 6.5224ZM6.54042 9.89409C6.54042 9.6871 6.70807 9.51945 6.91507 9.51945H9.16298C9.36998 9.51945 9.53764 9.6871 9.53764 9.89409V15.1893H6.54042V9.89409ZM14.0335 7.64622V2.40118C14.0335 2.19419 14.2011 2.02654 14.4081 2.02654H16.656C16.863 2.02654 17.0307 2.19419 17.0307 2.40118V8.20825V15.1893H14.0335V7.64622ZM12.9096 7.27169C13.1166 7.27169 13.2843 7.43935 13.2843 7.64634V15.1892H10.2871V7.64634C10.2871 7.43935 10.4547 7.27169 10.6617 7.27169H12.9096Z" fill="#0F1E56" stroke="#0F1E56" stroke-width="0.586994"/>
</g>
</g>
<path id="Vector_2" fill-rule="evenodd" clip-rule="evenodd" d="M9.93387 0.888879C10.3803 0.888879 10.7419 1.25045 10.7419 1.69685C10.7419 2.14124 10.3803 2.50281 9.93387 2.50281H2.23213V11.8204C2.23213 12.2668 1.87055 12.6283 1.42615 12.6283C0.97974 12.6283 0.618164 12.2668 0.618164 11.8204V1.69665C0.618164 1.25024 0.97974 0.888672 1.42615 0.888672L9.93387 0.888879Z" fill="#0F1E56" stroke="#0F1E56" stroke-width="0.352197"/>
</g>
</svg>
