<svg width="24" height="18" viewBox="0 0 24 18" fill="none" xmlns="http://www.w3.org/2000/svg">
<g id="Group">
<path id="Vector 3" d="M6.27902 7.85714L4.42188 5.57143L4.88616 1L9.06473 1.57143V2.71429L9.52902 4.42857L9.06473 5L9.52902 6.71429L8.13616 8.42857L6.27902 7.85714Z" fill="#EBC292"/>
<path id="Vector 4" d="M11.8499 12.4288L10.457 11.2859L11.8499 7.85732H13.2427L14.1713 6.14304L19.2785 7.85732L19.7427 9.57161L21.5999 10.7145L22.9927 16.4287H14.1713L13.707 14.7145L11.3856 13.0002L11.8499 12.4288Z" fill="#EBC292"/>
<path id="Vector" d="M23.1246 17C23.2317 16.9978 23.3328 16.9351 23.3977 16.8291C23.4627 16.7243 23.4856 16.5881 23.4584 16.4594L19.9449 1.32433C19.9054 1.13622 19.7692 1.00324 19.6111 1H8.39609L7.99203 1.86485H14.8679L14.3936 3.24862L13.4801 3.42159C13.3624 3.44754 13.2631 3.54483 13.2165 3.68105L12.8652 4.71888C12.8028 4.9059 12.8538 5.12103 12.9882 5.23779L13.8841 6.03777L13.1639 7.22696L12.2855 7.05398C12.1511 7.02263 12.0141 7.08966 11.9342 7.22696L10.1071 10.4702L9.87878 10.3189V9.43241C9.87702 9.31782 9.83925 9.20971 9.77338 9.1297L9.03556 8.22161L9.98421 6.44867C10.0641 6.29516 10.0571 6.09626 9.96664 5.95138L9.42204 5.00004L9.89637 4.63248C9.98157 4.56329 10.0387 4.45194 10.0518 4.32761C10.0659 4.20328 10.0343 4.07788 9.96664 3.98382L9.28151 3.0541L9.43961 1.88653H9.84367L9.47476 1.02168H4.85451C4.69641 1.02492 4.56026 1.15789 4.52073 1.346L1.00725 16.4811C0.986173 16.6065 1.01165 16.7362 1.07577 16.8357C1.14077 16.9362 1.23739 16.9957 1.34104 17L23.1246 17ZM13.7611 4.24327L14.6746 4.0703C14.7993 4.05192 14.9065 3.95246 14.9557 3.81084L15.6232 1.86494H19.3474L21.1744 9.75684L20.0852 9.10818L19.3298 7.48657C19.2789 7.38604 19.1963 7.31577 19.1015 7.29198L15.7987 6.3839L14.5163 5.56227L13.5852 4.71903L13.7611 4.24327ZM12.3908 7.96229L13.2165 8.13526C13.3456 8.15796 13.4739 8.09201 13.5503 7.96229L14.4286 6.49203L15.5178 7.18392L15.6057 7.22716L18.7854 8.09201L19.5233 9.64875C19.5558 9.72226 19.6041 9.78173 19.6638 9.82172L21.4205 10.8812L22.6327 16.1351H14.2883C14.2865 16.0745 14.2742 16.0161 14.2531 15.9621L13.7788 14.5999C13.7481 14.508 13.6918 14.4313 13.6207 14.3837L11.6707 13.0648L11.9518 12.2648C12.0212 12.067 11.9615 11.8356 11.8113 11.7243L10.7045 10.9243L12.3908 7.96229ZM5.11788 1.86513H8.73681L8.56114 3.09754C8.5427 3.23051 8.57519 3.36564 8.64898 3.4651L9.17601 4.17859L8.71927 4.50292C8.6367 4.56887 8.58049 4.67373 8.5638 4.79266C8.54711 4.91157 8.5717 5.03373 8.63143 5.12996L9.28142 6.21102L8.40306 7.83263H6.61118L5.80307 6.5786L5.46928 5.67052C5.42273 5.5343 5.32347 5.43701 5.20577 5.41106L4.32741 5.19485L5.11788 1.86513ZM4.15167 6.03802L4.90707 6.21099L5.18815 6.96774L5.22329 7.05423L6.15435 8.52448C6.22111 8.63367 6.32475 8.69745 6.43543 8.69745H8.45568L9.1935 9.60554V10.5785C9.19525 10.7309 9.26201 10.8704 9.36917 10.946L11.2137 12.2649L10.9327 13.0649C10.8554 13.2747 10.9248 13.5211 11.0908 13.6271L13.2164 15.0757L13.5853 16.1351H1.81513L4.15167 6.03802Z" fill="#0F1E56" stroke="#0F1E56" stroke-width="0.6"/>
</g>
</svg>
