<svg width="18" height="17" viewBox="0 0 18 17" fill="none" xmlns="http://www.w3.org/2000/svg">
<path d="M16.4706 13.6765C16.8331 13.6767 17.1817 13.8163 17.4441 14.0665C17.7065 14.3167 17.8626 14.6583 17.88 15.0204C17.8974 15.3825 17.7749 15.7375 17.5377 16.0117C17.3006 16.2859 16.967 16.4584 16.6061 16.4934L16.4706 16.5H1.41176C1.04921 16.4998 0.700617 16.3602 0.438224 16.11C0.175832 15.8598 0.0197534 15.5182 0.00233011 15.1561C-0.0150932 14.7939 0.107475 14.439 0.344636 14.1648C0.581797 13.8905 0.91537 13.718 1.27624 13.6831L1.41176 13.6765H16.4706ZM16.4706 7.08824C16.845 7.08824 17.2041 7.23697 17.4689 7.50173C17.7336 7.76649 17.8824 8.12558 17.8824 8.5C17.8824 8.87442 17.7336 9.23351 17.4689 9.49827C17.2041 9.76303 16.845 9.91177 16.4706 9.91177H8C7.62558 9.91177 7.26649 9.76303 7.00173 9.49827C6.73697 9.23351 6.58824 8.87442 6.58824 8.5C6.58824 8.12558 6.73697 7.76649 7.00173 7.50173C7.26649 7.23697 7.62558 7.08824 8 7.08824H16.4706ZM16.4706 0.5C16.845 0.5 17.2041 0.648739 17.4689 0.913496C17.7336 1.17825 17.8824 1.53734 17.8824 1.91176C17.8824 2.28619 17.7336 2.64528 17.4689 2.91003C17.2041 3.17479 16.845 3.32353 16.4706 3.32353H1.41176C1.03734 3.32353 0.678254 3.17479 0.413496 2.91003C0.148739 2.64528 0 2.28619 0 1.91176C0 1.53734 0.148739 1.17825 0.413496 0.913496C0.678254 0.648739 1.03734 0.5 1.41176 0.5H16.4706Z" fill="#D94D3A"/>
</svg>
