<svg width="19" height="18" viewBox="0 0 19 18" fill="none" xmlns="http://www.w3.org/2000/svg">
<g id="Group 289571">
<path id="Vector" d="M16.6811 5.3127H10.808V3.8933C10.8106 3.16642 10.3313 2.52589 9.63265 2.32414L2.11455 0.0686186C1.61764 -0.0793998 1.08019 0.0148741 0.664318 0.324124C0.248446 0.632499 0.00175931 1.11971 0 1.63778V16.3551C0.00528649 17.2617 0.738322 17.9947 1.64495 18H16.6811C17.5878 17.9947 18.3208 17.2617 18.3261 16.3551V6.95765C18.3208 6.05105 17.5878 5.318 16.6811 5.3127ZM1.40968 16.3551V1.63778C1.40792 1.56378 1.44316 1.49329 1.50395 1.45012C1.54977 1.43602 1.59823 1.43602 1.64492 1.45012H1.711L9.2291 3.70564C9.3269 3.73735 9.39474 3.82811 9.39826 3.93119V16.355C9.39826 16.4176 9.37359 16.4775 9.32954 16.5216C9.28549 16.5656 9.22557 16.5903 9.16302 16.5903H7.98857V12.5964C7.98328 11.6898 7.25025 10.9568 6.34362 10.9515H4.46432C3.55771 10.9568 2.82467 11.6898 2.81937 12.5964V16.5903H1.64492C1.51453 16.5903 1.40968 16.4855 1.40968 16.3551ZM16.9164 16.3551C16.9164 16.4176 16.8917 16.4775 16.8477 16.5216C16.8036 16.5656 16.7437 16.5903 16.6811 16.5903H10.7798C10.7895 16.5119 10.7895 16.4335 10.7798 16.355V6.7224H16.6811C16.7437 6.7224 16.8036 6.74707 16.8477 6.79112C16.8917 6.83517 16.9164 6.89508 16.9164 6.95764V16.3551Z" fill="#0F1E56"/>
<path id="Vector_2" d="M2.81934 7.14235C2.82463 6.75557 3.13742 6.44278 3.52419 6.4375H7.28369C7.67225 6.4375 7.98854 6.75291 7.98854 7.14235C7.98854 7.53179 7.67225 7.8472 7.28369 7.8472H3.52419C3.13742 7.84191 2.82462 7.52913 2.81934 7.14235ZM15.5066 14.4755C15.5014 14.8623 15.1886 15.1751 14.8018 15.1804H12.9225C12.5331 15.1804 12.2176 14.865 12.2176 14.4755C12.2176 14.0861 12.5331 13.7707 12.9225 13.7707H14.8018C15.1886 13.776 15.5014 14.0888 15.5066 14.4755ZM15.5066 11.6562C15.5014 12.0429 15.1886 12.3557 14.8018 12.361H12.9225C12.5331 12.361 12.2176 12.0456 12.2176 11.6562C12.2176 11.2667 12.5331 10.9513 12.9225 10.9513H14.8018C15.1886 10.9566 15.5014 11.2694 15.5066 11.6562ZM15.5066 8.83675C15.5014 9.22353 15.1886 9.53632 14.8018 9.5416H12.9225C12.5331 9.5416 12.2176 9.22619 12.2176 8.83675C12.2176 8.44731 12.5331 8.1319 12.9225 8.1319H14.8018C15.1886 8.13719 15.5014 8.44997 15.5066 8.83675Z" fill="#EBC292" stroke="#EBC292" stroke-width="0.2"/>
</g>
</svg>
