<svg width="13" height="19" viewBox="0 0 13 19" fill="none" xmlns="http://www.w3.org/2000/svg">
<g id="Group 289572">
<ellipse id="Ellipse 25" cx="6.5" cy="17" rx="3.5" ry="1" fill="#0F1E56"/>
<path id="Vector" d="M6.09269 16.2222C5.55075 15.2847 4.75276 14.3072 3.93519 13.3049C2.17923 11.1542 0.333984 8.892 0.333984 6.32618C0.333984 4.57959 1.04181 2.99722 2.18692 1.85294C3.33203 0.707826 4.91369 0 6.66017 0C8.40506 0 9.98652 0.708676 11.1308 1.85294L11.1333 1.85549C12.2776 3.0006 12.9863 4.58138 12.9863 6.32612C12.9863 8.89107 11.141 11.1533 9.38508 13.3049C8.56581 14.3087 7.76695 15.2888 7.22417 16.2272C7.04381 16.5386 6.64479 16.6449 6.33344 16.4645C6.22965 16.4041 6.14799 16.3192 6.09269 16.2222ZM9.08135 15.7076C8.73168 15.6242 8.51559 15.2737 8.59898 14.9241C8.68235 14.5744 9.03287 14.3583 9.38253 14.4417C10.1337 14.6212 10.7667 14.8756 11.2142 15.181C11.7672 15.5579 12.082 16.03 12.082 16.5711C12.082 17.3623 11.3852 18.0174 10.2588 18.4368C9.32384 18.7848 8.05018 19 6.66023 19C5.27028 19 3.99576 18.7848 3.06077 18.4368C1.93437 18.0174 1.23761 17.3623 1.23761 16.5711C1.23761 16.03 1.55238 15.5579 2.10538 15.181C2.55373 14.8756 3.18583 14.6212 3.93791 14.4417C4.28758 14.3583 4.63807 14.5744 4.72146 14.9241C4.80484 15.2737 4.58874 15.6242 4.2391 15.7076C3.64526 15.8497 3.16289 16.0394 2.8413 16.258C2.65243 16.3865 2.54523 16.4954 2.54523 16.5711C2.54523 16.7608 2.91616 16.9939 3.51594 17.2168C4.30628 17.5112 5.41822 17.6932 6.66108 17.6932C7.90402 17.6932 9.0152 17.5112 9.80557 17.2168C10.4054 16.9939 10.7763 16.7608 10.7763 16.5711C10.7763 16.4962 10.6682 16.3865 10.4802 16.258C10.1586 16.0394 9.67625 15.8497 9.08241 15.7076H9.08135ZM4.9459 12.4832C5.55504 13.2293 6.15227 13.9626 6.66017 14.6918C7.16721 13.9619 7.76529 13.2285 8.37443 12.4832C9.98575 10.5086 11.6797 8.43267 11.6797 6.32618C11.6797 4.93945 11.1182 3.6837 10.2104 2.77507C9.3018 1.86816 8.04694 1.30582 6.6593 1.30582C5.27342 1.30582 4.01769 1.86816 3.10993 2.77592C2.20217 3.68368 1.63983 4.93939 1.63983 6.32529C1.63983 8.43091 3.33367 10.5076 4.94505 12.4823L4.9459 12.4832Z" fill="#0F1E56"/>
<path id="Vector_2" d="M6.48168 3.35303C4.94084 3.35303 3.6875 4.60655 3.6875 6.14714C3.6875 7.68774 4.94104 8.94126 6.48168 8.94126C8.02231 8.94126 9.27606 7.68774 9.27606 6.14714C9.27606 4.60655 8.02251 3.35303 6.48168 3.35303Z" fill="#EBC292"/>
</g>
</svg>
