<svg width="16" height="16" viewBox="0 0 16 16" fill="none" xmlns="http://www.w3.org/2000/svg">
<g id="Group 289578">
<path id="Vector" d="M15.9892 8.00527C15.9917 10.6265 14.7082 13.0831 12.5538 14.5765C10.3993 16.0707 7.64858 16.4118 5.19429 15.4897L1.15837 15.9913H1.08058C0.894223 15.9929 0.717586 15.9135 0.594415 15.7741C0.472066 15.6347 0.415347 15.4492 0.440465 15.2653L0.890168 11.6612C-0.234485 9.48075 -0.296879 6.90493 0.722444 4.67343C1.74176 2.44194 3.72849 0.802024 6.11308 0.224341C8.49767 -0.352554 11.0152 0.196793 12.942 1.71522C14.8688 3.23284 15.9926 5.55182 15.9892 8.00527ZM14.6928 8.00527C14.6944 5.93424 13.7383 3.97912 12.1025 2.70946C10.4665 1.43897 8.33558 0.997378 6.33017 1.5119C4.32395 2.02642 2.66948 3.43952 1.84703 5.34037C1.02462 7.24044 1.1275 9.41444 2.12577 11.2286C2.18735 11.3518 2.21166 11.4903 2.19545 11.6264L1.82354 14.6082L5.19424 14.1844H5.28094C5.36115 14.1844 5.44137 14.2022 5.51429 14.2363C6.3043 14.5474 7.14536 14.7087 7.99451 14.7119C9.77142 14.7095 11.4754 14.0021 12.7313 12.7446C13.9872 11.4871 14.6928 9.78229 14.6928 8.00527Z" fill="#0F1E56"/>
<path id="Vector_2" d="M10.6184 6.17212C10.616 7.22464 9.9402 8.15806 8.94115 8.48866C8.39341 8.67421 8.02473 9.18872 8.02554 9.76807V10.0622C8.02554 10.4203 7.73467 10.7096 7.37733 10.7096C7.01918 10.7096 6.72912 10.4195 6.72912 10.0614V9.76726C6.71291 8.62479 7.447 7.60793 8.53519 7.26111C9.00433 7.10554 9.32116 6.66638 9.32197 6.17212C9.32197 5.33675 8.64459 4.66017 7.80919 4.66017C6.9738 4.66017 6.29642 5.33673 6.29642 6.17212C6.29642 6.53026 6.00636 6.82033 5.64821 6.82033C5.29088 6.82033 5 6.53026 5 6.17212C5 4.62127 6.25753 3.36377 7.80919 3.36377C9.36086 3.36377 10.6184 4.62129 10.6184 6.17212ZM7.37733 11.5741C7.11481 11.5741 6.87822 11.7321 6.77855 11.9744C6.67807 12.2167 6.73317 12.4954 6.91872 12.6809C7.10427 12.8657 7.38301 12.9216 7.62526 12.8211C7.86752 12.7206 8.02554 12.4849 8.02554 12.2223C8.02554 12.0506 7.95667 11.8853 7.83512 11.7637C7.71358 11.6422 7.5491 11.5741 7.37733 11.5741Z" fill="#EBC292"/>
</g>
</svg>
