<svg width="17" height="13" viewBox="0 0 17 13" fill="none" xmlns="http://www.w3.org/2000/svg">
<g id="Group 289577">
<path id="Vector" d="M7.02346 6.76761C7.1471 6.83918 7.29976 6.83918 7.4239 6.76761L10.1939 5.16842C10.318 5.09684 10.3941 4.9647 10.3941 4.82155C10.3941 4.67839 10.318 4.54625 10.1939 4.47467L7.4239 2.87497C7.29976 2.80339 7.14709 2.80339 7.02346 2.87497C6.89933 2.94655 6.82324 3.07869 6.82324 3.22185V6.42086C6.82324 6.56402 6.89933 6.69603 7.02346 6.76761Z" fill="#EBC292"/>
<path id="Vector_2" d="M10.9927 10.9732C11.0545 11.0089 11.1308 11.0089 11.1929 10.9732L12.5779 10.1736C12.64 10.1378 12.678 10.0717 12.678 10.0001C12.678 9.92855 12.64 9.86248 12.5779 9.82669L11.1929 9.02684C11.1308 8.99105 11.0545 8.99105 10.9927 9.02684C10.9306 9.06263 10.8926 9.1287 10.8926 9.20028V10.7998C10.8926 10.8714 10.9306 10.9374 10.9927 10.9732Z" fill="#EBC292"/>
<path id="Vector_3" d="M15.7917 0H0.585115C0.430058 0 0.280851 0.061437 0.171148 0.171148C0.0614368 0.281589 0 0.430062 0 0.585115V12.4149C0 12.5699 0.0614368 12.7184 0.171148 12.8289C0.280859 12.9386 0.430062 13 0.585115 13H15.7917C15.9468 13 16.096 12.9386 16.2057 12.8289C16.3154 12.7184 16.3769 12.5699 16.3769 12.4149V0.585115C16.3769 0.430058 16.3154 0.281582 16.2057 0.171148C16.096 0.061437 15.9468 0 15.7917 0ZM15.2066 11.829L1.17024 11.8298V1.17023H15.2066V11.829ZM6.47285 7.6652C6.65351 7.76979 6.87657 7.76979 7.05797 7.6652L11.1055 5.32845C11.2869 5.22386 11.3981 5.03078 11.3981 4.8216C11.3981 4.61241 11.2869 4.41933 11.1055 4.31474L7.05797 1.97725C6.87658 1.87266 6.6535 1.87266 6.47285 1.97725C6.29146 2.08184 6.18029 2.27492 6.18029 2.4841V7.15853C6.18029 7.36771 6.29146 7.56061 6.47285 7.6652ZM7.35053 3.49763L9.64272 4.82147L7.35053 6.14457V3.49763ZM2.57893 10.1892H10.0824C10.3062 10.7055 10.8152 11.0391 11.3777 11.0391C11.9409 11.0391 12.4499 10.7056 12.6737 10.1892H13.8293C14.1526 10.1892 14.4145 9.92735 14.4145 9.60406C14.4145 9.28077 14.1526 9.01894 13.8293 9.01894H12.6518C12.4199 8.52451 11.9233 8.20928 11.3777 8.20928C10.832 8.20928 10.3362 8.52451 10.1043 9.01894H2.57897C2.25568 9.01894 1.99385 9.28077 1.99385 9.60406C1.99385 9.92735 2.25564 10.1892 2.57893 10.1892ZM11.3777 9.37952C11.4764 9.37952 11.5664 9.43877 11.6044 9.53019C11.6424 9.62162 11.6212 9.72694 11.551 9.79716C11.4815 9.86737 11.3762 9.88858 11.2848 9.85055C11.1933 9.81252 11.1334 9.72328 11.1334 9.62455C11.1334 9.48924 11.2424 9.37952 11.3777 9.37952Z" fill="#0F1E56"/>
</g>
</svg>
