<svg width="26" height="26" viewBox="0 0 26 26" fill="none" xmlns="http://www.w3.org/2000/svg">
<circle cx="13" cy="13" r="13" fill="#98AEC4"/>
<path d="M12.9362 20.346C13.4683 20.346 13.8997 19.9146 13.8997 19.3825C13.8997 18.8503 13.4683 18.4189 12.9362 18.4189C12.404 18.4189 11.9727 18.8503 11.9727 19.3825C11.9727 19.9146 12.404 20.346 12.9362 20.346Z" fill="white"/>
<path d="M12.8587 17.119C12.3999 17.119 12.0175 16.7367 12.0175 16.2778V15.9414C11.9564 14.1061 13.1952 13.3108 14.0975 12.7296C15.0764 12.1025 15.627 11.6896 15.627 10.5731C15.627 9.15078 14.587 8.23313 12.9811 8.23313C12.5987 8.24843 10.8093 8.44725 10.8093 10.5578C10.8093 11.0167 10.427 11.399 9.96813 11.399C9.50931 11.399 9.12695 11.0167 9.12695 10.5578C9.12695 7.45313 11.6352 6.58137 12.9505 6.55078H12.9658C15.5199 6.55078 17.3093 8.20255 17.3093 10.5731C17.3093 12.6684 15.9787 13.5249 15.0152 14.152C14.1128 14.7331 13.6846 15.0543 13.7152 15.8955C13.7152 15.9108 13.7152 15.9108 13.7152 15.9261V16.2778C13.6999 16.752 13.3175 17.119 12.8587 17.119Z" fill="white"/>
</svg>
