<svg width="20" height="20" viewBox="0 0 20 20" fill="none" xmlns="http://www.w3.org/2000/svg">
<path d="M0.75 17L0.75 17.0003C0.750747 17.6175 0.973344 18.1519 1.41122 18.5898C1.84911 19.0277 2.38323 19.25 3 19.25H10C10.1381 19.25 10.25 19.1381 10.25 19V17C10.25 16.8619 10.1381 16.75 10 16.75H3.25V3.25H10C10.1381 3.25 10.25 3.13807 10.25 3V1C10.25 0.861929 10.1381 0.75 10 0.75L3 0.75L2.9997 0.75C2.38362 0.750748 1.84973 0.973458 1.41137 1.41107C0.972773 1.84893 0.75 2.38309 0.75 3L0.75 17ZM13.8186 15.172C13.865 15.221 13.9292 15.2491 13.9967 15.25C14.0641 15.2509 14.1291 15.2245 14.1768 15.1768L19.1768 10.1768C19.2744 10.0791 19.2744 9.92085 19.1768 9.82322L14.1768 4.82322C14.1291 4.77553 14.0641 4.74913 13.9967 4.75002C13.9292 4.75092 13.865 4.77903 13.8186 4.82798L12.4436 6.27798C12.3504 6.37629 12.3524 6.53097 12.4482 6.62678L14.5714 8.75H7C6.86193 8.75 6.75 8.86193 6.75 9V11C6.75 11.1381 6.86193 11.25 7 11.25H14.5714L12.4482 13.3732C12.3524 13.469 12.3504 13.6237 12.4436 13.722L13.8186 15.172Z" fill="#D94D3A" stroke="#D94D3A" stroke-width="0.5" stroke-linejoin="round"/>
</svg>
