<svg width="24" height="18" viewBox="0 0 24 18" fill="none" xmlns="http://www.w3.org/2000/svg">
<g id="Group 289582">
<path id="Vector 6" d="M23 2L20 1.5L19 3L17 2.5L13 1.5H11.5L8.5 4.5L8 6L9.5 6.5L10.5 5.5L12.5 4.5L18 9.5L19.5 9L20 10H23V2Z" fill="#EBC292"/>
<path id="Vector" d="M22.5564 1.37488H19.9091C19.6215 1.37389 19.3444 1.48307 19.1347 1.68C18.925 1.87693 18.7987 2.14665 18.7817 2.43379C15.9427 2.22314 14.6561 1.64641 13.7928 1.25802C13.2414 1.01328 12.6291 0.940424 12.0358 1.04897C11.4424 1.15753 10.8956 1.44244 10.4666 1.86652L10.217 2.11649C8.75836 1.99117 7.29195 1.98345 5.83203 2.09343C5.75145 1.88064 5.60757 1.69768 5.41979 1.56919C5.232 1.44071 5.00934 1.3729 4.78182 1.37488H2.13455C1.83365 1.37488 1.54507 1.49441 1.3323 1.70718C1.11953 1.91995 1 2.20853 1 2.50943L1 9.3167C1 9.6176 1.11953 9.90617 1.3323 10.1189C1.54507 10.3317 1.83365 10.4512 2.13455 10.4512H4.16273C4.36262 10.4519 4.55907 10.3993 4.73189 10.2989C4.9047 10.1985 5.04765 10.0538 5.14601 9.87981C5.82346 10.471 6.4505 11.1175 7.02065 11.8127C7.6681 12.5502 8.47401 13.468 9.55939 14.5549C9.74772 14.7439 9.98271 14.8798 10.2405 14.9487C10.4983 15.0176 10.7698 15.0171 11.0273 14.9472C11.2848 14.8773 11.5193 14.7405 11.7069 14.5507C11.8945 14.361 12.0286 14.1249 12.0955 13.8666C12.3889 14.0923 12.7537 14.205 13.1233 14.1842C13.4929 14.1634 13.8427 14.0104 14.1089 13.7531C14.3204 13.5386 14.4633 13.266 14.5192 12.9699C14.8025 13.1029 15.1195 13.1464 15.4282 13.0949C15.7368 13.0434 16.0224 12.8991 16.2472 12.6814C16.5007 12.4283 16.6557 12.0931 16.6843 11.7359C16.8691 11.7805 17.0604 11.7911 17.249 11.7673C17.4759 11.7398 17.6933 11.6602 17.8844 11.5347C18.0754 11.4092 18.2349 11.2412 18.3502 11.0439C18.4501 10.8665 18.5132 10.6708 18.5357 10.4686C18.5582 10.2663 18.5396 10.0615 18.4811 9.86658C18.8506 9.67068 19.1505 9.48839 19.3887 9.33145L19.3967 9.41956C19.4212 9.7022 19.5513 9.96523 19.7609 10.1564C19.9706 10.3475 20.2445 10.4528 20.5282 10.4512H22.5564C22.8573 10.4512 23.1458 10.3317 23.3586 10.1189C23.5714 9.90617 23.6909 9.6176 23.6909 9.3167V2.50943C23.6909 2.20853 23.5714 1.91995 23.3586 1.70718C23.1458 1.49441 22.8573 1.37488 22.5564 1.37488ZM4.16273 9.69488H2.13455C2.03425 9.69488 1.93805 9.65504 1.86713 9.58412C1.79621 9.51319 1.75636 9.417 1.75636 9.3167V2.50943C1.75636 2.40913 1.79621 2.31293 1.86713 2.24201C1.93805 2.17109 2.03425 2.13124 2.13455 2.13124H4.78182C4.83448 2.13103 4.88661 2.14182 4.93486 2.16291C4.98311 2.18401 5.02642 2.21495 5.06203 2.25376C5.09763 2.29257 5.12473 2.33838 5.1416 2.38827C5.15847 2.43815 5.16474 2.49101 5.16 2.54346L4.54129 9.35074C4.53277 9.44509 4.48914 9.53281 4.41904 9.59654C4.34894 9.66026 4.25747 9.69536 4.16273 9.69488ZM17.6952 10.6649C17.6378 10.7614 17.5589 10.8434 17.4647 10.9044C17.3704 10.9654 17.2633 11.0038 17.1518 11.0166C17.0363 11.0328 16.9186 11.0223 16.8078 10.9861C16.697 10.9498 16.5959 10.8888 16.5123 10.8075L13.8389 8.13148C13.7676 8.06259 13.672 8.02447 13.5729 8.02533C13.4737 8.02619 13.3789 8.06597 13.3088 8.13608C13.2386 8.2062 13.1989 8.30105 13.198 8.40021C13.1971 8.49937 13.2353 8.5949 13.3041 8.66623L15.7113 11.0752V11.0775L15.7135 11.0794C15.8542 11.2214 15.9329 11.4132 15.9325 11.613C15.9322 11.8129 15.8528 12.0044 15.7117 12.1459C15.5679 12.2852 15.3756 12.3632 15.1754 12.3632C14.9752 12.3632 14.7829 12.2852 14.6391 12.1459L11.9673 9.46986C11.9322 9.4347 11.8905 9.4068 11.8446 9.38775C11.7987 9.3687 11.7495 9.35888 11.6998 9.35884C11.6501 9.35881 11.6009 9.36856 11.555 9.38755C11.509 9.40653 11.4673 9.43437 11.4321 9.46948C11.397 9.5046 11.3691 9.54629 11.35 9.59219C11.331 9.63808 11.3212 9.68728 11.3211 9.73697C11.3211 9.78666 11.3308 9.83587 11.3498 9.88179C11.3688 9.92772 11.3967 9.96945 11.4318 10.0046L13.57 12.1459C13.6403 12.2161 13.6961 12.2995 13.7342 12.3914C13.7722 12.4832 13.7918 12.5816 13.7918 12.681C13.7918 12.7804 13.7722 12.8788 13.7342 12.9706C13.6961 13.0625 13.6403 13.1459 13.57 13.2161C13.4265 13.3546 13.2349 13.4319 13.0354 13.4319C12.836 13.4319 12.6444 13.3546 12.5009 13.2161L10.0922 10.8033C10.0574 10.7672 10.0156 10.7384 9.96949 10.7186C9.92335 10.6988 9.87373 10.6883 9.82351 10.6879C9.7733 10.6875 9.7235 10.697 9.67702 10.716C9.63054 10.7351 9.58832 10.7631 9.55281 10.7986C9.5173 10.8342 9.48922 10.8764 9.47021 10.9229C9.45119 10.9693 9.44162 11.0191 9.44206 11.0693C9.4425 11.1196 9.45293 11.1692 9.47275 11.2153C9.49257 11.2615 9.52138 11.3032 9.5575 11.3381L11.1621 12.9446L11.1674 12.9484C11.3076 13.0908 11.386 13.2827 11.3855 13.4825C11.385 13.6824 11.3057 13.8739 11.1648 14.0156C11.0197 14.1527 10.8277 14.2291 10.6281 14.2291C10.4286 14.2291 10.2365 14.1527 10.0915 14.0156C9.02313 12.9461 8.2263 12.0385 7.58604 11.309C6.91989 10.4756 6.16018 9.72165 5.32186 9.0618L5.88989 2.84979C7.09355 2.75202 8.30287 2.74507 9.50758 2.82899L8.08826 4.24906C7.84968 4.48751 7.68715 4.79134 7.62123 5.12215C7.55531 5.45296 7.58896 5.79588 7.71793 6.10757C7.84689 6.41925 8.06538 6.6857 8.34576 6.87322C8.62615 7.06073 8.95584 7.16091 9.29315 7.16106H9.29618C9.51937 7.16139 9.74039 7.11713 9.94626 7.03089C10.1521 6.94465 10.3387 6.81816 10.495 6.65884L12.2346 4.9192C12.2698 4.88404 12.3115 4.85614 12.3574 4.83711C12.4033 4.81808 12.4525 4.80828 12.5022 4.80828C12.5519 4.80828 12.6011 4.81808 12.647 4.83711C12.6929 4.85614 12.7347 4.88404 12.7698 4.9192L17.5209 9.67522C17.5794 9.73385 17.6295 9.80028 17.6699 9.87263C17.7425 9.99112 17.7831 10.1265 17.7875 10.2654C17.792 10.4043 17.7602 10.542 17.6952 10.6649ZM18.1112 9.20589C18.0919 9.18434 18.0734 9.16051 18.0541 9.14009L13.3049 4.3818C13.0918 4.16943 12.8032 4.05018 12.5024 4.05018C12.2016 4.05018 11.913 4.16943 11.6999 4.3818L9.95837 6.12371C9.87196 6.21203 9.76877 6.28219 9.65485 6.33006C9.54094 6.37792 9.4186 6.40253 9.29504 6.40243H9.29315C9.16885 6.40257 9.04576 6.378 8.93105 6.33015C8.81633 6.28231 8.71226 6.21213 8.6249 6.12371C8.44779 5.94609 8.34826 5.70554 8.34807 5.45471C8.34721 5.33033 8.37111 5.20702 8.41838 5.09197C8.46565 4.97692 8.53534 4.87242 8.62339 4.78457L11.0018 2.40202C11.3219 2.08565 11.73 1.87312 12.1728 1.79217C12.6155 1.71121 13.0724 1.76559 13.4838 1.9482C14.3494 2.33811 15.7831 2.97988 18.832 3.1962L19.3112 8.46768C18.9309 8.7438 18.5301 8.99058 18.1123 9.20589H18.1112ZM22.9345 9.3167C22.9345 9.417 22.8947 9.51319 22.8238 9.58412C22.7529 9.65504 22.6567 9.69488 22.5564 9.69488H20.5282C20.4335 9.69527 20.3421 9.66013 20.2721 9.59641C20.2021 9.53269 20.1585 9.44502 20.15 9.35074L19.5313 2.54346C19.5265 2.49105 19.5328 2.43822 19.5497 2.38836C19.5665 2.33849 19.5936 2.2927 19.6291 2.2539C19.6647 2.2151 19.708 2.18415 19.7562 2.16303C19.8044 2.14191 19.8565 2.13108 19.9091 2.13124H22.5564C22.6567 2.13124 22.7529 2.17109 22.8238 2.24201C22.8947 2.31293 22.9345 2.40913 22.9345 2.50943V9.3167Z" fill="#0F1E56" stroke="#0F1E56" stroke-width="0.5"/>
<path id="Vector_2" fill-rule="evenodd" clip-rule="evenodd" d="M3.90573 14.4662C4.00297 14.3497 4.1222 14.2536 4.2566 14.1833C4.39099 14.113 4.53793 14.0699 4.68901 14.0563C4.84009 14.0428 4.99235 14.0592 5.13709 14.1046C5.28183 14.1499 5.41622 14.2234 5.53257 14.3207L6.63869 15.2444C6.80407 15.3826 7.00485 15.4718 7.2183 15.5018L8.64656 15.7016C8.79674 15.7227 8.9413 15.7731 9.07199 15.8501C9.20268 15.927 9.31693 16.0289 9.40823 16.15C9.49952 16.2711 9.56607 16.409 9.60407 16.5558C9.64207 16.7027 9.65078 16.8555 9.62971 17.0057C9.60863 17.1559 9.55818 17.3005 9.48123 17.4312C9.40429 17.5618 9.30236 17.6761 9.18126 17.7674C9.06016 17.8587 8.92226 17.9252 8.77544 17.9632C8.62863 18.0012 8.47576 18.0099 8.32557 17.9889L6.89848 17.7891C6.25772 17.6992 5.65495 17.4316 5.15848 17.0167L4.05237 16.093C3.9357 15.9958 3.83935 15.8766 3.76883 15.7421C3.69831 15.6077 3.65499 15.4606 3.64137 15.3094C3.62775 15.1582 3.64409 15.0058 3.68945 14.8609C3.73482 14.716 3.80831 14.5815 3.90573 14.465" fill="#0F1E56"/>
</g>
</svg>
