<svg width="18" height="18" viewBox="0 0 18 18" fill="none" xmlns="http://www.w3.org/2000/svg">
<g id="Group">
<path id="Vector" d="M9 8.94886C10.5357 8.94886 11.7851 7.69936 11.7851 6.16376C11.7851 4.62816 10.5356 3.37866 9 3.37866C7.4644 3.37866 6.2149 4.62816 6.2149 6.16376C6.2149 7.69936 7.4644 8.94886 9 8.94886ZM9 4.51109C9.91091 4.51109 10.6518 5.252 10.6518 6.16293C10.6518 7.07384 9.91093 7.81476 9 7.81476C8.08908 7.81476 7.34817 7.07386 7.34817 6.16293C7.34817 5.25202 8.08908 4.51109 9 4.51109Z" fill="#0F1E56"/>
<path id="Vector 9" d="M6.28006 11.9014C3.28803 12.7041 3.04635 15.6187 3.74146 16.7067C6.82413 17.3715 8.72817 16.7973 11.8108 16.7067C10.7228 14.8933 11.9619 13.1707 12.7175 12.536C11.3574 11.72 9.99737 10.9041 6.28006 11.9014Z" fill="#EBC292"/>
<circle id="Ellipse 26" cx="8.99998" cy="6.09867" r="1.99467" fill="#EBC292" stroke="#0F1E56" stroke-width="0.472222"/>
<path id="Vector_2" d="M15.2333 0.5H2.76667C1.51717 0.5 0.5 1.51717 0.5 2.76667V15.2333C0.5 16.4828 1.51717 17.5 2.76667 17.5H15.2333C16.4828 17.5 17.5 16.4828 17.5 15.2333V2.76667C17.5 1.51717 16.4828 0.5 15.2333 0.5ZM2.76667 1.63333H15.2333C15.8581 1.63333 16.3667 2.14192 16.3667 2.76667V5.15374C15.1016 5.41653 14.1482 6.53923 14.1482 7.88081C14.1482 9.22239 15.1016 10.3451 16.3667 10.6079V11.1391H15.1823C14.3925 11.1391 13.6354 11.3502 12.9681 11.7384C12.2966 11.3467 11.5373 11.1391 10.7509 11.1391H7.24901C6.45992 11.1391 5.70343 11.3502 5.03547 11.737C4.35972 11.3453 3.60038 11.1391 2.81777 11.1391H1.63344V10.6079C2.89853 10.3451 3.85187 9.22239 3.85187 7.88081C3.85187 6.53923 2.89846 5.41649 1.63344 5.15374V2.76667C1.63344 2.14192 2.14192 1.63333 2.76667 1.63333ZM16.3667 6.33095V9.42994C15.7348 9.19762 15.2815 8.59198 15.2815 7.8801C15.2815 7.16893 15.7348 6.56261 16.3667 6.33027V6.33095ZM1.63333 9.43067V6.33168C2.26517 6.564 2.7185 7.16964 2.7185 7.88152C2.7185 8.59269 2.26517 9.19901 1.63333 9.43136V9.43067ZM1.63333 15.2333V12.2725H2.81766C3.24337 12.2725 3.65986 12.3547 4.05016 12.5126C3.26036 13.3371 2.82333 14.4152 2.82333 15.5648C2.82333 15.851 2.88708 16.1223 2.999 16.3667H2.76595C2.1412 16.3667 1.63262 15.8581 1.63262 15.2334L1.63333 15.2333ZM3.95658 15.5648C3.95658 14.6837 4.2987 13.857 4.91991 13.238C5.54536 12.6153 6.37199 12.2725 7.24895 12.2725H10.7509C11.1787 12.2725 11.5952 12.3547 11.9834 12.5126C11.1936 13.3364 10.7565 14.4152 10.7565 15.5648C10.7565 15.851 10.8203 16.1223 10.9322 16.3667H4.75763C4.31562 16.3667 3.95579 16.0068 3.95579 15.5648H3.95658ZM15.2333 16.3667H12.6918C12.2498 16.3667 11.8899 16.0068 11.8899 15.5648C11.8899 14.683 12.232 13.857 12.8533 13.238C13.478 12.6153 14.3053 12.2725 15.1823 12.2725H16.3666V15.2333C16.3666 15.8581 15.8581 16.3667 15.2333 16.3667Z" fill="#0F1E56" stroke="#0F1E56" stroke-width="0.283333"/>
</g>
</svg>
