<svg width="23" height="20" viewBox="0 0 23 20" fill="none" xmlns="http://www.w3.org/2000/svg">
<g id="Group 289574">
<path id="Rectangle 2768" d="M5.2763 6.03562L9.4034 6.03562L16.8782 17.1255L11.6814 17.1254L5.2763 6.03562Z" fill="#EBC292"/>
<path id="Rectangle 2769" d="M2.80831 17.4181L3.00215 13.2956L7.70739 10.1713L14.0509 11.0884L16.8788 5.50917L19.6302 6.04416L19.6302 11.6997L14.8152 14.4511L9.5416 14.4511L2.80831 17.4181Z" fill="#EBC292"/>
<g id="Group">
<path id="Vector" d="M16.2938 5.75331C16.2978 5.72281 16.3046 5.69401 16.3136 5.66577C16.361 5.44835 16.387 5.24336 16.387 5.05474C16.387 4.20595 16.0431 3.43793 15.4868 2.88167C14.9306 2.32541 14.1625 1.9815 13.3138 1.9815C12.465 1.9815 11.6969 2.32541 11.1407 2.88167C10.5844 3.43793 10.2405 4.20595 10.2405 5.05474C10.2405 5.24336 10.2665 5.44835 10.3139 5.66577C10.3229 5.69401 10.3297 5.72281 10.3337 5.75331C10.5296 6.57103 11.0125 7.55365 11.5676 8.50183C12.1465 9.4918 12.8078 10.4451 13.3143 11.147C13.8203 10.4445 14.4822 9.4918 15.061 8.50183C15.6156 7.55309 16.0984 6.57047 16.295 5.75331H16.2938ZM17.355 5.3275H19.6941C19.9652 5.3275 20.1848 5.54718 20.1848 5.81825V17.6289C20.1848 17.9 19.9652 18.1197 19.6941 18.1197H2.62283C2.35176 18.1197 2.13208 17.9 2.13208 17.6289V5.81825C2.13208 5.54718 2.35176 5.3275 2.62283 5.3275H9.27197C9.2635 5.23432 9.25955 5.1434 9.25955 5.05417C9.25955 3.93489 9.71359 2.9212 10.4472 2.18762C11.1808 1.45404 12.1945 1 13.3138 1C14.433 1 15.4467 1.45404 16.1803 2.18762C16.9139 2.9212 17.368 3.93489 17.368 5.05417C17.368 5.14284 17.364 5.23432 17.3555 5.3275H17.355ZM9.47415 6.30843H5.92764L8.13122 9.94358C8.27071 10.174 8.19729 10.4744 7.96632 10.6139L7.95446 10.6207L7.95502 10.6218L3.11302 13.3777V16.8694L9.58879 13.9221C9.82484 13.7967 10.1179 13.8842 10.2473 14.1186L11.9166 17.1388H16.3927L14.7414 14.6958L14.7425 14.6946L14.7239 14.6647C14.5895 14.4309 14.6702 14.1322 14.904 13.9983L19.205 11.5203V6.30843H17.1539C16.8947 7.16117 16.4288 8.09918 15.9042 8.99597C15.1265 10.3253 14.2281 11.5615 13.7091 12.2674C13.5492 12.4854 13.2432 12.5323 13.0252 12.373C12.9811 12.3408 12.9439 12.3019 12.9139 12.259C12.3944 11.5514 11.4998 10.3203 10.725 8.99597C10.2004 8.09918 9.73449 7.16117 9.47528 6.30843H9.47415ZM10.3133 5.66577C10.3195 5.69457 10.3263 5.72394 10.3331 5.75331L10.3133 5.66577ZM4.78632 6.30843H3.11302V12.2522L7.03564 10.0193L4.78632 6.30843ZM4.8795 17.1388H10.7973L9.60799 14.9866L4.8795 17.1388ZM17.5741 17.1388H19.2039V12.6475L15.846 14.5822L17.5741 17.1388Z" fill="#0F1E56" stroke="#0F1E56" stroke-width="0.2"/>
<path id="Vector_2" d="M13.3251 3.35693C12.398 3.35693 11.6438 4.11126 11.6438 5.03833C11.6438 5.96541 12.3981 6.71973 13.3251 6.71973C14.2522 6.71973 15.0066 5.96541 15.0066 5.03833C15.0066 4.11126 14.2523 3.35693 13.3251 3.35693Z" fill="#AC91AB"/>
</g>
</g>
</svg>
