<svg width="19" height="18" viewBox="0 0 19 18" fill="none" xmlns="http://www.w3.org/2000/svg">
<g id="Group 289584">
<path id="Rectangle 2771" d="M2.88867 15.1387H16.5831V17.0276H2.88867V15.1387Z" fill="#EBC292"/>
<path id="Rectangle 2772" d="M8 8H12V15H8V8Z" fill="#EBC292"/>
<path id="Vector" d="M1.44157 17.4986H17.9341C18.1778 17.4986 18.3759 17.3005 18.3759 17.0568C18.3759 16.8125 18.1778 16.6151 17.9341 16.6151H17.3709V16.0933C17.3702 15.3168 16.8194 14.65 16.0567 14.503V8.09138C16.682 7.9913 17.2031 7.5599 17.4178 6.96423C17.6228 6.3306 17.3819 5.6376 16.829 5.26693L10.8544 0.872211C10.1559 0.37593 9.21926 0.37593 8.52075 0.872211L2.54544 5.26693C1.99256 5.6376 1.75236 6.33058 1.95667 6.96423C2.17133 7.5599 2.69316 7.9913 3.31782 8.09138V14.5044C2.5558 14.6514 2.0043 15.3189 2.00361 16.0947V16.6165H1.44175C1.1981 16.6165 1 16.8146 1 17.0582C1 17.3026 1.1981 17.5 1.44175 17.5L1.44157 17.4986ZM12.1023 14.4733L12.103 8.13346H15.171V14.4733H12.1023ZM8.15143 14.4733L8.15212 8.13346H11.2195V14.4733H8.15143ZM4.19987 14.4733V8.13346H7.27287V14.4733H4.19987ZM2.79662 6.68946C2.71448 6.4175 2.8263 6.12554 3.06927 5.97852L9.04387 1.58663C9.4304 1.31675 9.94533 1.31675 10.3319 1.58663L16.3065 5.97852C16.5487 6.12554 16.6612 6.41821 16.5784 6.68946C16.4293 7.05666 16.058 7.28444 15.6625 7.24994H3.7131C3.31759 7.28445 2.9457 7.05737 2.79662 6.68946ZM2.88773 16.0933C2.88842 15.6867 3.21767 15.3575 3.62422 15.3568H15.751C16.1576 15.3575 16.4868 15.6867 16.4875 16.0933V16.6151H2.88844L2.88773 16.0933Z" fill="#0F1E56" stroke="#0F1E56" stroke-width="0.4"/>
<path id="Vector_2" d="M9.68804 5.76613C10.1509 5.76599 10.5687 5.48661 10.7459 5.05874C10.923 4.63112 10.8251 4.13879 10.4977 3.81077C10.1702 3.48319 9.67796 3.3853 9.24908 3.56262L9.68804 5.76613ZM9.68804 5.76613C9.05532 5.76496 8.54297 5.25208 8.54237 4.62067C8.54243 4.15691 8.82127 3.73986 9.24891 3.56269L9.68804 5.76613Z" fill="#0F1E56" stroke="#0F1E56" stroke-width="0.85"/>
</g>
</svg>
