<svg width="15" height="18" viewBox="0 0 15 18" fill="none" xmlns="http://www.w3.org/2000/svg">
<g id="Group 44">
<path id="Vector" opacity="0.5" d="M14.3232 8.85982L14.3226 8.85963C13.8476 8.66281 13.8107 8.22327 13.8107 8.09332C13.8105 7.96318 13.8476 7.52364 14.3226 7.32682C14.5621 7.22766 14.7484 7.04122 14.8475 6.80191C14.9467 6.56259 14.9467 6.29909 14.8475 6.05958L14.2157 4.53433C14.0108 4.04058 13.4429 3.80466 12.9482 4.00979C12.4728 4.2068 12.136 3.92196 12.0442 3.82997C11.9522 3.73798 11.6674 3.40101 11.8644 2.92577C11.9634 2.68645 11.9634 2.42296 11.8642 2.18364C11.765 1.94413 11.5786 1.7577 11.3395 1.65872L9.81418 1.0269C9.32042 0.822525 8.75186 1.05807 8.54692 1.552C8.35028 2.02649 7.91092 2.06351 7.78078 2.06351C7.65063 2.06351 7.21109 2.02667 7.01426 1.55163C6.91529 1.31212 6.72885 1.12569 6.48934 1.02652C6.25001 0.927357 5.98651 0.927357 5.74681 1.02652L4.22209 1.65816C3.98258 1.75732 3.79614 1.94356 3.69698 2.18307C3.59781 2.42258 3.59781 2.68608 3.69698 2.9254C3.89399 3.40044 3.60914 3.73761 3.51715 3.8294C3.42535 3.92139 3.08875 4.20642 2.61312 4.00941C2.3738 3.91044 2.11011 3.91044 1.8706 4.00941C1.63109 4.10858 1.44465 4.29501 1.34567 4.53433L0.714024 6.05921C0.614857 6.29871 0.614857 6.56221 0.714024 6.80172C0.813191 7.04122 0.999626 7.22766 1.23895 7.32663C1.71401 7.52345 1.75084 7.96318 1.75084 8.09313C1.75084 8.22309 1.71382 8.66262 1.23838 8.85963C0.744435 9.06457 0.509078 9.63312 0.713646 10.1269L1.34529 11.6519C1.44446 11.8914 1.6309 12.0777 1.87022 12.1769C2.10935 12.2758 2.37305 12.276 2.61256 12.1769C3.08762 11.9804 3.4246 12.2647 3.51659 12.3569C3.56305 12.4033 3.65825 12.5125 3.71624 12.6702C4.21076 12.0307 4.85091 11.5091 5.58871 11.1595C4.63274 10.4742 4.00657 9.35659 4.00657 8.09332C4.00657 6.01255 5.69959 4.31956 7.7804 4.31956C9.8614 4.31956 11.5544 6.01255 11.5544 8.09332C11.5544 9.35659 10.9283 10.474 9.97228 11.1593C10.7099 11.509 11.35 12.0303 11.8446 12.6697C11.9025 12.5121 11.9978 12.4031 12.0442 12.3567C12.1362 12.2647 12.4726 11.9797 12.9484 12.1769C13.4426 12.3808 14.0108 12.1457 14.2157 11.6517L14.8475 10.1267C15.0521 9.63293 14.8167 9.06457 14.3232 8.85982Z" fill="#582357"/>
<path id="Vector_2" d="M7.78134 5.51988C6.36202 5.51988 5.20752 6.67455 5.20752 8.09365C5.20752 9.51275 6.3622 10.6674 7.78134 10.6674C9.20047 10.6674 10.3553 9.51275 10.3553 8.09365C10.3553 6.67455 9.20066 5.51988 7.78134 5.51988Z" fill="#582357"/>
<path id="Vector_3" d="M11.7177 15.8038C11.7177 13.5827 9.86843 11.7854 7.62895 11.8702C5.49884 11.9509 3.84473 13.7689 3.84473 15.9005V17.14C3.84473 17.5884 4.20834 17.952 4.65676 17.952L10.9056 17.9522C11.3541 17.9522 11.7177 17.5888 11.7177 17.1402V15.8038Z" fill="#582357"/>
</g>
</svg>
