<svg width="20" height="20" viewBox="0 0 20 20" fill="none" xmlns="http://www.w3.org/2000/svg">
<path id="Vector" d="M0.809032 10.3018C0.78782 9.08137 1.00988 7.86895 1.46224 6.73527C1.91461 5.60159 2.58822 4.56936 3.44379 3.69879C4.29935 2.82823 5.31972 2.13678 6.44537 1.66478C7.57102 1.19278 8.7794 0.949688 10 0.949688C11.2206 0.949688 12.429 1.19278 13.5546 1.66478C14.6803 2.13678 15.7007 2.82823 16.5562 3.69879C17.4118 4.56936 18.0854 5.60159 18.5378 6.73527C18.9901 7.86895 19.2122 9.08137 19.191 10.3018C19.1491 12.7117 18.1623 15.0088 16.4433 16.6983C14.7242 18.3877 12.4103 19.3344 10 19.3344C7.5897 19.3344 5.27583 18.3877 3.55675 16.6983C1.83767 15.0088 0.850919 12.7117 0.809032 10.3018ZM10.91 11.2118H14.589L14.589 9.37879L10.9165 9.38529L10.9165 5.70631H9.0835L9.0835 9.38529L5.40452 9.38529L5.40452 11.2183H9.0835V14.8973H10.9165V11.2183L10.91 11.2118Z" fill="white"/>
</svg>
