<svg width="16" height="16" viewBox="0 0 16 16" fill="none" xmlns="http://www.w3.org/2000/svg">
<path id="Vector" d="M15.9866 1.21175C15.9677 0.899703 15.8351 0.605385 15.6141 0.384328C15.393 0.16327 15.0987 0.0307584 14.7867 0.0117951C13.7803 -0.0482026 11.2084 0.0437938 9.07407 2.17731L8.69409 2.5621H4.02786C3.85912 2.5611 3.69187 2.59369 3.53586 2.65797C3.37984 2.72225 3.23817 2.81692 3.1191 2.93649L0.375197 5.68198C0.206922 5.85014 0.0888418 6.06187 0.034209 6.29341C-0.0204239 6.52495 -0.00944738 6.76713 0.0659067 6.99278C0.141261 7.21843 0.27801 7.41861 0.460808 7.57086C0.643605 7.72311 0.865216 7.8214 1.10077 7.8547L4.17826 8.28429L7.71492 11.821L8.14451 14.9C8.17754 15.1356 8.27581 15.3572 8.4282 15.5399C8.58059 15.7225 8.78104 15.8589 9.00688 15.9336C9.13841 15.9776 9.27618 16 9.41486 16C9.58279 16.0004 9.74913 15.9675 9.90428 15.9032C10.0594 15.8389 10.2003 15.7446 10.3188 15.6256L13.0643 12.8817C13.1839 12.7626 13.2786 12.621 13.3428 12.465C13.4071 12.3089 13.4397 12.1417 13.4387 11.9729V7.30672L13.8203 6.92514C15.9546 4.79082 16.0466 2.21891 15.9866 1.21175ZM4.02786 3.84205H7.41414L4.25185 7.00353L1.27916 6.58915L4.02786 3.84205ZM9.98044 3.08608C10.5954 2.46733 11.3353 1.98693 12.1507 1.67695C12.9662 1.36697 13.8384 1.23455 14.7091 1.28855C14.7651 2.1597 14.6341 3.03276 14.3247 3.84906C14.0154 4.66537 13.5349 5.40599 12.9155 6.02117L8.3189 10.6162L5.38461 7.68191L9.98044 3.08608ZM12.1588 11.9729L9.41246 14.7216L8.99728 11.7482L12.1588 8.58667V11.9729ZM6.22618 12.7329C5.86619 13.5217 4.66224 15.3616 1.27916 15.3616C1.10943 15.3616 0.946651 15.2942 0.826632 15.1742C0.706614 15.0542 0.639187 14.8914 0.639187 14.7216C0.639187 11.3386 2.47912 10.1346 3.26789 9.77383C3.34437 9.73895 3.42697 9.71948 3.51097 9.71653C3.59498 9.71357 3.67874 9.72719 3.75748 9.7566C3.83622 9.78602 3.9084 9.83066 3.96989 9.88797C4.03138 9.94528 4.08098 10.0141 4.11586 10.0906C4.15074 10.1671 4.17021 10.2497 4.17316 10.3337C4.17612 10.4177 4.1625 10.5015 4.13308 10.5802C4.10367 10.659 4.05903 10.7311 4.00172 10.7926C3.94441 10.8541 3.87555 10.9037 3.79907 10.9386C3.28469 11.173 2.14953 11.9274 1.94954 14.0513C4.07346 13.8513 4.82943 12.7161 5.06222 12.2017C5.0971 12.1253 5.1467 12.0564 5.20819 11.9991C5.26968 11.9418 5.34186 11.8971 5.4206 11.8677C5.49934 11.8383 5.5831 11.8247 5.66711 11.8276C5.75111 11.8306 5.83371 11.8501 5.91019 11.885C5.98667 11.9198 6.05553 11.9694 6.11284 12.0309C6.17015 12.0924 6.21479 12.1646 6.2442 12.2433C6.27362 12.3221 6.28724 12.4058 6.28429 12.4898C6.28133 12.5738 6.26186 12.6564 6.22698 12.7329H6.22618Z" fill="#181161"/>
</svg>
