<svg width="20" height="16" viewBox="0 0 20 16" fill="none" xmlns="http://www.w3.org/2000/svg">
<path fill-rule="evenodd" clip-rule="evenodd" d="M6.80252 2.375H15.625C16.1223 2.375 16.5992 2.57255 16.9508 2.92418C17.3025 3.27581 17.5 3.75272 17.5 4.25V11.75C17.5 12.2473 17.3025 12.7242 16.9508 13.0758C16.5992 13.4275 16.1223 13.625 15.625 13.625H6.80252C6.52139 13.6249 6.24387 13.5617 5.9905 13.4398C5.73712 13.318 5.51439 13.1408 5.33877 12.9213L2.24502 9.055C2.00524 8.75565 1.87458 8.38355 1.87458 8C1.87458 7.61645 2.00524 7.24435 2.24502 6.945L5.33877 3.07875C5.51413 2.85954 5.73646 2.68251 5.98937 2.5607C6.24228 2.4389 6.51931 2.37544 6.80002 2.375M3.87127 1.9075C4.2229 1.46794 4.66897 1.11317 5.17641 0.869514C5.68384 0.625858 6.23962 0.499565 6.80252 0.500001H15.625C16.6196 0.500001 17.5734 0.895089 18.2767 1.59835C18.9799 2.30161 19.375 3.25544 19.375 4.25V11.75C19.375 12.7446 18.9799 13.6984 18.2767 14.4017C17.5734 15.1049 16.6196 15.5 15.625 15.5H6.80252C6.24004 15.5001 5.68475 15.3736 5.17778 15.1299C4.67081 14.8863 4.22514 14.5317 3.87377 14.0925L0.781274 10.2263C0.275544 9.59445 0 8.80928 0 8C0 7.19072 0.275544 6.40555 0.781274 5.77375L3.87127 1.9075ZM9.10002 4.8375C8.92231 4.6719 8.68725 4.58175 8.44437 4.58603C8.20149 4.59032 7.96976 4.68871 7.798 4.86047C7.62623 5.03224 7.52784 5.26397 7.52355 5.50685C7.51927 5.74972 7.60942 5.98478 7.77502 6.1625L9.61252 8L7.77502 9.8375C7.68291 9.92333 7.60904 10.0268 7.5578 10.1418C7.50656 10.2568 7.47901 10.381 7.47678 10.5068C7.47456 10.6327 7.49772 10.7578 7.54487 10.8745C7.59202 10.9912 7.6622 11.0973 7.75123 11.1863C7.84025 11.2753 7.94629 11.3455 8.06303 11.3927C8.17976 11.4398 8.3048 11.463 8.43068 11.4607C8.55656 11.4585 8.6807 11.431 8.7957 11.3797C8.9107 11.3285 9.0142 11.2546 9.10002 11.1625L10.9375 9.325L12.775 11.1625C12.8609 11.2546 12.9644 11.3285 13.0793 11.3797C13.1943 11.431 13.3185 11.4585 13.4444 11.4607C13.5702 11.463 13.6953 11.4398 13.812 11.3927C13.9288 11.3455 14.0348 11.2753 14.1238 11.1863C14.2128 11.0973 14.283 10.9912 14.3302 10.8745C14.3773 10.7578 14.4005 10.6327 14.3983 10.5068C14.396 10.381 14.3685 10.2568 14.3172 10.1418C14.266 10.0268 14.1921 9.92333 14.1 9.8375L12.2625 8L14.1 6.1625C14.2656 5.98478 14.3558 5.74972 14.3515 5.50685C14.3472 5.26397 14.2488 5.03224 14.077 4.86047C13.9053 4.68871 13.6736 4.59032 13.4307 4.58603C13.1878 4.58175 12.9527 4.6719 12.775 4.8375L10.9375 6.675L9.10002 4.8375Z" fill="#D94D3A"/>
</svg>
