<svg width="21" height="19" viewBox="0 0 21 19" fill="none" xmlns="http://www.w3.org/2000/svg">
<g id="Group 289573">
<path id="Vector" d="M7.46871 14.8491C7.83245 14.8491 8.13199 14.5495 8.13199 14.1858V8.08782H14.4653C14.8291 8.08782 15.1286 7.78827 15.1286 7.42453V1.96846C15.1286 1.60473 14.8291 1.30518 14.4653 1.30518H8.13199V0.663287C8.13199 0.299549 7.83245 0 7.46871 0C7.10497 0 6.80542 0.299549 6.80542 0.663287V14.1858C6.82682 14.5495 7.10497 14.8491 7.46871 14.8491Z" fill="white"/>
<path id="Vector_2" d="M20.2855 16.4324L18.3812 11.3829C18.2529 11.062 17.9105 10.8908 17.5896 10.9764L11.9837 12.6025L9.2664 12.0248V13.3728L11.8768 13.9505C11.9837 13.9719 12.0907 13.9719 12.1977 13.9505L17.3756 12.4313L18.8092 16.2827L14.7439 17.6948H3.06146L1.49953 14.9561L4.40943 12.3457L5.69321 12.6239V11.2759L4.34524 10.9764C4.15267 10.9336 3.93871 10.9978 3.76754 11.1261L0.215747 14.3356C-0.0196133 14.5282 -0.062406 14.8919 0.0873684 15.1487L2.12002 18.6791C2.2484 18.8716 2.46236 19 2.69772 19H14.8508C14.915 19 15.0006 19 15.0648 18.9786L19.879 17.3097C20.0502 17.2455 20.1785 17.1171 20.2641 16.9674C20.3497 16.7748 20.3497 16.6036 20.2855 16.4324Z" fill="#0F1E56"/>
<path id="Vector_3" d="M7.46871 14.8491C7.83245 14.8491 8.13199 14.5495 8.13199 14.1858V8.08782H14.4653C14.8291 8.08782 15.1286 7.78827 15.1286 7.42453V1.96846C15.1286 1.60473 14.8291 1.30518 14.4653 1.30518H8.13199V0.663287C8.13199 0.299549 7.83245 0 7.46871 0C7.10497 0 6.80542 0.299549 6.80542 0.663287V14.1858C6.82682 14.5495 7.10497 14.8491 7.46871 14.8491ZM13.8234 2.63175V6.76125H8.13199V2.63175H13.8234Z" fill="#0F1E56"/>
</g>
</svg>
